<svg xmlns="http://www.w3.org/2000/svg" viewBox="0 0 500 500"><g id="freepik--City--inject-5"><path id="freepik--city--inject-5" d="M481.84,146.74,467,138.16v-26.8s-16.45-9.19-16.75-9.19-16.74,9.19-16.74,9.19v7.46l-16.75-9.67L400,118.82v9.74l-16.75,9.67v-49l-8.37-4.83-8.37,4.83v19.34l-8.38-4.83-16.75,9.67V98.65L333,93.82l-16.75,9.66v24.4l-8.37-4.83v-9.67l-16.75-9.67-16.75,9.67V103.7L249.24,89.2,232.5,98.87V79.53l-16.75-9.67L199,79.53v26.88l-8.37,4.83V91.9l-16.75-9.67L157.13,91.9v29L132,106.41V87.07L115.26,77.4,98.52,87.07v29l-8.38-4.84L73.4,120.91v11.8l-16.75,9.67v-18L39.9,114.7,18.1,127.29v179H481.84Z" style="fill:#f5f5f5"></path></g><g id="freepik--street-light--inject-5"><g id="freepik--street-light--inject-5"><path d="M40.17,306.25a1.09,1.09,0,0,0,1.23-1.05V57.6a14.53,14.53,0,0,1,6.47-11.2L66.63,35.54c1.49-.86,2.84-1,3.78-.49s1.46,1.79,1.46,3.52V61.06a1.23,1.23,0,1,0,2.45,0V38.57c0-2.64-1-4.65-2.69-5.65s-3.94-.82-6.23.5L46.64,44.28A16.77,16.77,0,0,0,39,57.6V305.2A1.08,1.08,0,0,0,40.17,306.25Z"></path><path d="M69,55.82a9.79,9.79,0,0,1,8.85,0,3.12,3.12,0,0,1,1.83,2.56v1.8a3.12,3.12,0,0,1-1.83,2.56,9.79,9.79,0,0,1-8.85,0,3.11,3.11,0,0,1-1.84-2.56v-1.8A3.11,3.11,0,0,1,69,55.82Z" style="fill:#455a64"></path><path d="M69,57.63c-2.45,1.41-2.45,3.7,0,5.11a9.79,9.79,0,0,0,8.85,0c2.44-1.41,2.44-3.7,0-5.11A9.79,9.79,0,0,0,69,57.63Z" style="fill:#37474f"></path><path d="M67.37,75H79.56V60.8a3,3,0,0,0-1.79-2.49,9.49,9.49,0,0,0-8.62,0,3,3,0,0,0-1.78,2.49h0Z" style="fill:#2DC1F1"></path><path d="M67.37,75H79.56V60.8a3,3,0,0,0-1.79-2.49,9.49,9.49,0,0,0-8.62,0,3,3,0,0,0-1.78,2.49h0Z" style="fill:#fff;opacity:0.7000000000000001"></path><path d="M77.77,77.49c2.38-1.38,2.38-3.61,0-5a9.49,9.49,0,0,0-8.62,0c-2.38,1.37-2.38,3.6,0,5A9.55,9.55,0,0,0,77.77,77.49Z" style="fill:#2DC1F1"></path><path d="M77.77,77.49c2.38-1.38,2.38-3.61,0-5a9.49,9.49,0,0,0-8.62,0c-2.38,1.37-2.38,3.6,0,5A9.55,9.55,0,0,0,77.77,77.49Z" style="fill:#fff;opacity:0.5"></path><path d="M69.8,62.85a3.66,3.66,0,1,1,3.66,3.66A3.66,3.66,0,0,1,69.8,62.85Z" style="fill:#fff;opacity:0.2"></path><path d="M67.37,67.21a7.49,7.49,0,0,0,12.19,0V60.8a3,3,0,0,0-1.79-2.49,9.49,9.49,0,0,0-8.62,0,3,3,0,0,0-1.78,2.49Z" style="fill:#fff;opacity:0.2"></path><path d="M71.76,62.85a1.7,1.7,0,1,1,1.7,1.7A1.71,1.71,0,0,1,71.76,62.85Z" style="fill:#fff;opacity:0.4"></path><path d="M69,71.91a9.79,9.79,0,0,1,8.85,0,3.1,3.1,0,0,1,1.83,2.55v1.81a3.1,3.1,0,0,1-1.83,2.55,9.73,9.73,0,0,1-8.85,0,3.1,3.1,0,0,1-1.84-2.55V74.46A3.1,3.1,0,0,1,69,71.91Z" style="fill:#455a64"></path><path d="M69,73.72c-2.45,1.41-2.45,3.69,0,5.1a9.73,9.73,0,0,0,8.85,0c2.44-1.41,2.44-3.69,0-5.1A9.73,9.73,0,0,0,69,73.72Z" style="fill:#37474f"></path></g><g id="freepik--street-light--inject-5"><path d="M459.83,306.25a1.09,1.09,0,0,1-1.23-1.05V57.6a14.53,14.53,0,0,0-6.47-11.2L433.37,35.54c-1.49-.86-2.84-1-3.78-.49s-1.46,1.79-1.46,3.52V61.06a1.23,1.23,0,1,1-2.45,0V38.57c0-2.64,1-4.65,2.69-5.65s3.94-.82,6.23.5l18.76,10.86a16.77,16.77,0,0,1,7.69,13.32V305.2A1.08,1.08,0,0,1,459.83,306.25Z"></path><path d="M431,55.82a9.79,9.79,0,0,0-8.85,0,3.12,3.12,0,0,0-1.83,2.56v1.8a3.12,3.12,0,0,0,1.83,2.56,9.79,9.79,0,0,0,8.85,0,3.11,3.11,0,0,0,1.84-2.56v-1.8A3.11,3.11,0,0,0,431,55.82Z" style="fill:#455a64"></path><path d="M431,57.63c2.45,1.41,2.45,3.7,0,5.11a9.79,9.79,0,0,1-8.85,0c-2.44-1.41-2.44-3.7,0-5.11A9.79,9.79,0,0,1,431,57.63Z" style="fill:#37474f"></path><path d="M432.63,75H420.44V60.8a3,3,0,0,1,1.79-2.49,9.49,9.49,0,0,1,8.62,0,3,3,0,0,1,1.78,2.49h0Z" style="fill:#2DC1F1"></path><path d="M432.63,75H420.44V60.8a3,3,0,0,1,1.79-2.49,9.49,9.49,0,0,1,8.62,0,3,3,0,0,1,1.78,2.49h0Z" style="fill:#fff;opacity:0.7000000000000001"></path><path d="M422.23,77.49c-2.38-1.38-2.38-3.61,0-5a9.49,9.49,0,0,1,8.62,0c2.38,1.37,2.38,3.6,0,5A9.55,9.55,0,0,1,422.23,77.49Z" style="fill:#2DC1F1"></path><path d="M422.23,77.49c-2.38-1.38-2.38-3.61,0-5a9.49,9.49,0,0,1,8.62,0c2.38,1.37,2.38,3.6,0,5A9.55,9.55,0,0,1,422.23,77.49Z" style="fill:#fff;opacity:0.5"></path><path d="M430.2,62.85a3.66,3.66,0,1,0-3.66,3.66A3.66,3.66,0,0,0,430.2,62.85Z" style="fill:#fff;opacity:0.2"></path><path d="M432.63,67.21a7.49,7.49,0,0,1-12.19,0V60.8a3,3,0,0,1,1.79-2.49,9.49,9.49,0,0,1,8.62,0,3,3,0,0,1,1.78,2.49Z" style="fill:#fff;opacity:0.2"></path><path d="M428.24,62.85a1.7,1.7,0,1,0-1.7,1.7A1.71,1.71,0,0,0,428.24,62.85Z" style="fill:#fff;opacity:0.4"></path><path d="M431,71.91a9.79,9.79,0,0,0-8.85,0,3.1,3.1,0,0,0-1.83,2.55v1.81a3.1,3.1,0,0,0,1.83,2.55,9.73,9.73,0,0,0,8.85,0,3.1,3.1,0,0,0,1.84-2.55V74.46A3.1,3.1,0,0,0,431,71.91Z" style="fill:#455a64"></path><path d="M431,73.72c2.45,1.41,2.45,3.69,0,5.1a9.73,9.73,0,0,1-8.85,0c-2.44-1.41-2.44-3.69,0-5.1A9.73,9.73,0,0,1,431,73.72Z" style="fill:#37474f"></path></g></g><g id="freepik--Plants--inject-5"><g id="freepik--Shrubbery--inject-5"><path d="M16.81,301.4a3.56,3.56,0,0,0-.41.3.61.61,0,0,1,.16-.12Z" style="fill:#2DC1F1"></path><path d="M11.49,295.77a7.25,7.25,0,0,0,.2,1.25,1.82,1.82,0,0,0,.07.25,4.19,4.19,0,0,0,.22.59l0,0a2.3,2.3,0,0,0,.15.32l.12.21a5,5,0,0,0,.53.73l.09.09.27.27s.05.05.08.06l.24.2.23.17.07.05a5.86,5.86,0,0,0,1.46.73l.62.2c.4.11.84.21,1.3.29a3.87,3.87,0,0,0,.87,5H482.87c3.62-2.78,3.29-9.08-.39-12.36l.52-.23a2.55,2.55,0,0,0,.33-.17,7.41,7.41,0,0,0,.87-.52l.37-.28a8.69,8.69,0,0,0,2.79-3.9c1.42-3.92.25-8.59-2.57-9.93,3.9-2.78,5.49-8.18,4.36-12.69-.1-.39-.21-.77-.34-1.14a10.54,10.54,0,0,0-.74-1.6,10.37,10.37,0,0,0-1-1.43,3.28,3.28,0,0,0-.4-.43,2.44,2.44,0,0,0-.37-.35,7.54,7.54,0,0,0-1.58-1.13l-.39-.2-.29-.14-.4-.17c-.22-.09-.43-.16-.66-.23,5.79-5.8,4-18.29-4.35-19.06,2.06-5.12,1-12.14-5.54-13.44,2.09-6.28-3.72-10.63-9.56-8.38-.25-6.62-9.62-7-11.74-2.35.12-2.55-3.73-7.3-6.19-7.31,4.26-3.33,3.08-10-.57-10.89,5-3.76,2.3-12.35-3.63-12.27a6,6,0,0,0,.92-4.54l-.09-.38c0-.07-.05-.14-.07-.22a1.83,1.83,0,0,0-.08-.25,8,8,0,0,0-.59-1.26c-.07-.11-.12-.21-.19-.3a2.43,2.43,0,0,0-.2-.28,10.91,10.91,0,0,0-1.19-1.37l-.28-.23a8.92,8.92,0,0,0-.85-.67,8.83,8.83,0,0,0-.9-.56l0,0a6.27,6.27,0,0,0-.58-.29,8.63,8.63,0,0,0-1.41-.53l-.34-.09-.35-.08a6.43,6.43,0,0,0-3.52.19c3-7-10.95-12.64-14-5.18-5.33-8.78-23.64-3.61-21.18,7.81a4.35,4.35,0,0,0-3.25,7.75,6.29,6.29,0,0,0-8.57,1.87,3.39,3.39,0,0,0-2.83-4.4c5.8-2.35,1.74-11-3.62-10.64,5.06-6.49-5.2-14-10.65-8.89-2.54-6-11.6-4.71-11,2.29-2-3.65-6-3.4-9.2-1.45-4.49,2.7-3.88,7.48-1.43,11.36-1.85-2.22-7.52-3.43-8.38.24a4.41,4.41,0,0,0-6.39-.73c-1.68-6-12.45-6.81-14.49.6a4.77,4.77,0,0,0-5.91.94c.15-1.37.7-2.36.2-3.94s-1.45-3.07-3-3.21c-2-.21-4.94,1.21-5.78,3.29-.48-1.32-.86-2.12-2.23-2.55a3.1,3.1,0,0,0-4.17,2,8.45,8.45,0,0,0-1.39-3.75,5.06,5.06,0,0,0-2.4-1.75,9.75,9.75,0,0,0-11.53,7,4.85,4.85,0,0,0-3.6-2.4,3.38,3.38,0,0,0-3.49,2.24c-.65-2.19-2-4.63-4.22-4.88a5.87,5.87,0,0,0-3.47,1.07c-1.34.8-2.73,1.85-3.05,3.39a11.57,11.57,0,0,0-8.19-7.53,12.12,12.12,0,0,0-10.82,2.84,12.75,12.75,0,0,0-4,10.49,3,3,0,0,0-5.3,1.79,7.39,7.39,0,0,0-6.13-4.13,5.68,5.68,0,0,0-5.69,4.31A5.8,5.8,0,0,0,221,177.8a6.85,6.85,0,0,0-3.81-1.94,5.92,5.92,0,0,0-2.14,0,3.41,3.41,0,0,0-.55.14c-.45.15-.79-.1-1.24-.2a5.18,5.18,0,0,0-3,.12,5.41,5.41,0,0,0-1.3.69c-.24.18-.92.62-1,.93.79-3.12-.11-6-3.53-7.07a6.29,6.29,0,0,0-6.71,2.45,3.37,3.37,0,0,0-.53-.71,4.46,4.46,0,0,0-.82-.74,6.43,6.43,0,0,0-2-1,7.78,7.78,0,0,0-3-.3,8.4,8.4,0,0,0-1.38.41,4.92,4.92,0,0,0-3.15,2.2,10.28,10.28,0,0,0-1.14,4.55,12.59,12.59,0,0,0-3.16-1.9,4.4,4.4,0,0,0-3.59.09c-1.39.77-2,2.45-2.32,4-.24-2.26-2.58-3.86-4.86-4a11.71,11.71,0,0,0-6.41,2.05c.21-.13.25-.73.36-1a1.17,1.17,0,0,0,.12-.48,7,7,0,0,0-.12-1.38,10.36,10.36,0,0,0-.79-2.61,9.43,9.43,0,0,0-3.46-4.09l-.32-.21a8.49,8.49,0,0,0-9.67.81,24.67,24.67,0,0,0-2.2,2.48,6.3,6.3,0,0,0-11.19.91,11.59,11.59,0,0,0-1.26-.28l-.44,0-.9,0a9.88,9.88,0,0,0-1.8.16,5.1,5.1,0,0,0-2.77,1.47,6.18,6.18,0,0,0-1.09,2,6.25,6.25,0,0,0-.32,1,2.39,2.39,0,0,1-.12.46s-.12.26,0,.31a7.06,7.06,0,0,0-11.07,7.36,6.58,6.58,0,0,0-9.78,6.65A5.84,5.84,0,0,0,98,190.05c-.08-2.81-.37-6-2.64-7.7-2.48-1.81-5.87-.8-8.5.07,0-.16-2.14-6.31-10.56-6.33s-11.42,2.8-12.44,6.18c-5.18-3.18-9.94-1.27-12.49.18-2,1.17-6.71,5-5.91,10.4a11.57,11.57,0,0,0-8.81,2.25l0,0,0,0a8.11,8.11,0,0,0-.65.51c-.21.17-.41.35-.61.53h0c-.16.16-.33.33-.47.5a8.84,8.84,0,0,0-1.88,3.38,8,8,0,0,0-.35,1.6c0,.09,0,.19,0,.29s0,.34,0,.5,0,.39,0,.59,0,.43,0,.65a7.19,7.19,0,0,0,.1.92,1,1,0,0,1,0,.18l.09.43c0,.13.06.24.1.37a8.69,8.69,0,0,0,.58,1.55h0c-4.2-.36-7.42,1.93-9.59,5.57a8.51,8.51,0,0,0-.53,1.12l-.21.6c-.07.22-.14.46-.2.7v0a12.39,12.39,0,0,0-.29,1.45.5.5,0,0,0,0,.12l0,.2c0,.21-.05.43-.07.65v0c0,.28,0,.57,0,.85s0,.39,0,.59a4.75,4.75,0,0,0,0,.53s0,.05,0,.08a5.34,5.34,0,0,0,.09.53s0,0,0,0a2.74,2.74,0,0,0,.09.39,3,3,0,0,0,.11.43l0,.12c0,.11.08.23.13.34l.13.33a5.15,5.15,0,0,0,1.06,1.55c-.2.05-.39.11-.59.18l-.36.14a3.67,3.67,0,0,0-.47.2,8.19,8.19,0,0,0-1.22.73l-.95.75,0,.05a9.9,9.9,0,0,0-.73.72c-.11.14-.23.27-.35.41l-.33.43a10.15,10.15,0,0,0-.88,1.39l-.19.38,0,.06c-.09.21-.18.42-.26.63s-.11.29-.16.45a7.8,7.8,0,0,0-.27,1.16,8.5,8.5,0,0,0-.11,1.4c0,.15,0,.31,0,.47s0,.26,0,.39.08.53.14.78a6.22,6.22,0,0,0,.31,1l.15.35a4.09,4.09,0,0,0,.23.47,7,7,0,0,0,.57.93,5,5,0,0,0,.36.48l.32.38a5.14,5.14,0,0,0,.38.42c.27.28.55.56.85.82l-.81.4a5.06,5.06,0,0,0-.46.27l-.12.08-.39.27-.05,0-.33.28a3,3,0,0,0-.25.25,1.7,1.7,0,0,0-.29.31,3.47,3.47,0,0,0-.35.43l-.08.09a4.53,4.53,0,0,0-.26.4l-.05.07c-.09.15-.18.3-.26.46s-.16.33-.23.5a.25.25,0,0,0,0,.07,5,5,0,0,0-.18.5,5.4,5.4,0,0,0-.18.57,9.5,9.5,0,0,0-.3,1.86,10.46,10.46,0,0,0,0,1.77,6.05,6.05,0,0,0,.41,1.8l0,.05c.09.2.17.4.27.58s.21.39.33.56l0,.05a6.25,6.25,0,0,0,.78,1,3.72,3.72,0,0,0,.65.56l.23.16a2.65,2.65,0,0,0,.4.22,2.54,2.54,0,0,0,.45.17,5.91,5.91,0,0,0-.4,1.17,2.21,2.21,0,0,0-.07.46,3.91,3.91,0,0,0,0,.49,4.37,4.37,0,0,0,.44,1.91,5.19,5.19,0,0,0,.57.91,4.39,4.39,0,0,0,.33.4c1.67,1.81,4.39,2.21,6.86,2.09a5.57,5.57,0,0,0-.41.45l-.1.15a2,2,0,0,0-.22.32,1.92,1.92,0,0,0-.14.33.51.51,0,0,0-.07.17.75.75,0,0,0-.05.16,1.4,1.4,0,0,0-.06.28.58.58,0,0,0,0,.19.81.81,0,0,1,0,.16c0,.08,0,.16,0,.24s0,.11,0,.16a2.08,2.08,0,0,0,.05.36,2.21,2.21,0,0,0,.05.25v0a2,2,0,0,1,.07.26l.09.25c0,.09.06.19.1.28l0,.1a3.59,3.59,0,0,0,.17.34l.14.27,0,0,.17.26.15.23.18.25.18.24,0,0,.26.3a1.13,1.13,0,0,0,.1.13c.06,0,.11.11.17.17a3,3,0,0,0,.25.25l.14.14a2.26,2.26,0,0,0,.29.26l.11.09a2.16,2.16,0,0,0,.33.27l-.25-.15a2.61,2.61,0,0,0-.28-.17h0a6.71,6.71,0,0,0-1.5-.66h-.06a6.27,6.27,0,0,0-1.69-.23h-.05a5.67,5.67,0,0,0-.91.07,6.19,6.19,0,0,0-.7.14l-.29.07-.37.12c-.21.06-.42.14-.65.23s-.39.17-.58.27-.38.21-.56.32a4.71,4.71,0,0,0-.45.33,5.17,5.17,0,0,0-.51.42l-.16.16a2.43,2.43,0,0,0-.26.29.7.7,0,0,0-.14.16,3,3,0,0,0-.3.4,1.81,1.81,0,0,0-.2.33,2.69,2.69,0,0,0-.16.29,1.61,1.61,0,0,0-.15.36,2.84,2.84,0,0,0-.13.38c0,.13-.07.25-.1.38a4.42,4.42,0,0,0,0,1.54,3.9,3.9,0,0,0,.22.77l-1.4.35-.32.11-.31.13-.49.25a2.14,2.14,0,0,0-.39.24,2.74,2.74,0,0,0-.43.3l-.07.05a2.91,2.91,0,0,0-.37.33,3.41,3.41,0,0,0-.38.38,4.16,4.16,0,0,0-.32.39,7.41,7.41,0,0,0-.49.71c-.09.15-.18.32-.27.49s-.2.44-.3.68-.17.43-.24.66c0,0,0,.05,0,.07a0,0,0,0,1,0,0l0,.2c-.05.19-.1.38-.13.56,0,0,0,.05,0,.07a5.9,5.9,0,0,0-.1.7.25.25,0,0,0,0,.08,6.23,6.23,0,0,0,0,.74c0,.18,0,.35,0,.53s0,.27,0,.41l.06.42s0,0,0,.06,0,.24.07.35.11.39.16.58l.14.39a6.86,6.86,0,0,0,.38.83,7.25,7.25,0,0,0,1.4,1.83c.13.11.26.22.38.34a6.51,6.51,0,0,0,1.22.82,3.09,3.09,0,0,0,.44.24,6.55,6.55,0,0,0-.63.19l-.4.16a3.52,3.52,0,0,0-.39.16l-1.33.81-.26.21a3.17,3.17,0,0,0-.34.3c-.16.14-.3.3-.45.45s-.29.37-.42.55a2.51,2.51,0,0,0-.2.29,2.81,2.81,0,0,0-.32.55c-.11.19-.21.4-.3.6h0c-.08.21-.16.44-.23.66a4.94,4.94,0,0,0-.15.55c0,.12-.05.25-.07.38a4.67,4.67,0,0,0-.08.52,6.11,6.11,0,0,0,0,.73h0c0,.19,0,.38,0,.57S11.48,295.65,11.49,295.77Z" style="fill:#e6e6e6"></path><g style="opacity:0.1"><path d="M423.13,189.53a6.72,6.72,0,0,0-9.48-.56,6.47,6.47,0,0,0-1.24,1.49,6.71,6.71,0,0,0-10.88,3.86,8,8,0,0,1,13.29,1.58,5.61,5.61,0,0,0,0-1.15,6.72,6.72,0,0,0-.9-2.59,6.72,6.72,0,0,1,.69-.73,8,8,0,0,1,9.24-1A5.8,5.8,0,0,0,423.13,189.53Z"></path><path d="M353.26,178a5.19,5.19,0,0,1,7.32-.44,4.94,4.94,0,0,1,.95,1.16,5.17,5.17,0,0,1,8.39,3,6.16,6.16,0,0,0-10.25,1.22,4.35,4.35,0,0,1,0-.88,5.29,5.29,0,0,1,.7-2,4.68,4.68,0,0,0-.53-.56,6.15,6.15,0,0,0-7.13-.76A4.3,4.3,0,0,1,353.26,178Z"></path><path d="M432.51,215.6c2.18-.94,5.76-1.19,7.75,2.27a5.61,5.61,0,0,1,.31,4.47,11.28,11.28,0,0,1-.75,1.52,1.12,1.12,0,0,0-.18.42c0,.62.89.71,1.34.93a6.77,6.77,0,0,1,3.11,9.08,8.12,8.12,0,0,1,13.33,7.49c2.55-2.82,7.13-3.06,10.51-1.32a7.61,7.61,0,0,1,3.41,3.2,5.9,5.9,0,0,1-4,8.05,10.25,10.25,0,0,1,8,5.47,7.69,7.69,0,0,1-2,9.15c-2.85,2.17-6.89,1.68-10.35.72a3.83,3.83,0,0,1-.44,4.83,5.73,5.73,0,0,1-3.09,1.62,9.85,9.85,0,0,1,5.49,1.06c2.22,1.25,3,3.49,3,5.92a3.4,3.4,0,0,1-1.37,2.39c-1,1-2.17,1.89-3.12,3,2.74,1.81,5.49,3,6.43,6.62,1.16,4.45-2.47,6.48-5.3,8.92a8.27,8.27,0,0,1,6.88,4.87h11.33c3.61-2.78,3.28-9.08-.41-12.36l.54-.23.33-.17a6.78,6.78,0,0,0,.86-.52l.37-.28a8.37,8.37,0,0,0,2.8-3.91c1.41-3.91.24-8.58-2.58-9.92,3.9-2.78,5.48-8.18,4.37-12.66a6.58,6.58,0,0,0-.35-1.17,8.6,8.6,0,0,0-.74-1.6,7.46,7.46,0,0,0-1-1.43,5.76,5.76,0,0,0-.41-.44c-.12-.12-.24-.24-.37-.35a8.18,8.18,0,0,0-1.58-1.12c-.13-.07-.25-.14-.39-.2l-.29-.14-.4-.17c-.21-.08-.43-.16-.66-.23,5.79-5.81,4.05-18.29-4.35-19.06,2.06-5.12,1-12.14-5.54-13.43,2.09-6.29-3.72-10.64-9.55-8.39-.26-6.62-9.64-7-11.74-2.34.11-2.56-3.73-7.31-6.2-7.32,4.26-3.33,3.08-10-.57-10.89,5-3.76,2.3-12.35-3.62-12.27a6.06,6.06,0,0,0,.91-4.53l-.09-.38c0-.08-.05-.15-.07-.23a2.41,2.41,0,0,0-.08-.25,8,8,0,0,0-.59-1.26,2.2,2.2,0,0,0-.19-.3,2.75,2.75,0,0,0-.19-.28,9.07,9.07,0,0,0-1.21-1.36l-.27-.24a10.69,10.69,0,0,0-1.75-1.23l0,0c-.19-.11-.39-.2-.58-.29a8.09,8.09,0,0,0-1.42-.53,2.14,2.14,0,0,0-.34-.09l-.34-.08c1.72,1.91,3.27,4.44,2,7.06C436,184,433,184.4,431,185.38c4.75,1.6,6.94,6.38,3.4,10.56,4.84.61,5.47,7,3.53,9.66-1.19-1-3.66-1.27-5.46-.92-2.44.46-3.74,1.68-5.93,4.13C430.87,205.48,435.24,211.85,432.51,215.6Z"></path><path d="M11.49,295.77a7.25,7.25,0,0,0,.2,1.25,1.82,1.82,0,0,0,.07.25,4.19,4.19,0,0,0,.22.59l0,0a2.3,2.3,0,0,0,.15.32l.06.12.06.09a5,5,0,0,0,.53.73l0,0,.06.05.27.27s.05.05.08.06l.24.2.23.17.07.05a5.86,5.86,0,0,0,1.46.73c.19.07.4.14.62.2.4.11.84.21,1.3.29a3.87,3.87,0,0,0,.87,5H48.44c-3.24-1.43-5.76-3.89-5.9-7.47-5.44,1.13-11.43,2-12.2-5.53-.5-4.86,2.47-7.36,6.18-9.57-3.66.71-3.45-4.14-2.75-6.41,1-3.09,4.66-5.19,7.93-5-2.1-5.51-.89-11.87,6.27-12.55-2.3-2.16-2.49-7.4-.45-9.88s9.5-4,11.56-.93c-.13-6.38,1.81-8.27,7.3-10.75-3.29.25-9.19-.69-8.8-5.07-1.95,2.63-4.59,5.76-8.47,4.75-1.88-.5-3.45-1.7-3.17-3.83-4.66,5.11-13.27,1.32-8.8-4.88-8.55.2-2.46-10.64,4.22-10.26-3.1-1.79-5.57-3.92-4.43-7.74a9.32,9.32,0,0,1,7-5.91c-5.33-2.76-8.44-6.52-6-11a12.52,12.52,0,0,0-1.36.86l0,0a8.11,8.11,0,0,0-.65.51c-.21.17-.41.35-.61.53l-.48.5a8.92,8.92,0,0,0-1.16,1.67,9.84,9.84,0,0,0-.72,1.71,9.72,9.72,0,0,0-.35,1.6c0,.09,0,.19,0,.29s0,.34,0,.5,0,.39,0,.59,0,.43,0,.65a7.19,7.19,0,0,0,.1.92,1,1,0,0,1,0,.18l.09.43c0,.13.06.24.1.37a8.69,8.69,0,0,0,.58,1.55h0c-4.2-.36-7.42,1.93-9.59,5.57a8.51,8.51,0,0,0-.53,1.12l-.21.6c-.07.22-.13.46-.2.7v0a12.39,12.39,0,0,0-.29,1.45.5.5,0,0,0,0,.12l0,.2c0,.21-.05.43-.07.65v0c0,.28,0,.57,0,.85s0,.39,0,.59a4.75,4.75,0,0,0,0,.53s0,.05,0,.08a5.34,5.34,0,0,0,.09.53s0,0,0,0a2.74,2.74,0,0,0,.09.39,3,3,0,0,0,.11.43l0,.12c0,.11.08.23.13.34l.13.33a5.15,5.15,0,0,0,1.06,1.55c-.2.05-.39.11-.59.18l-.36.14a3.67,3.67,0,0,0-.47.2,9.59,9.59,0,0,0-1.22.73l-.95.75,0,.05a9.9,9.9,0,0,0-.73.72c-.11.14-.23.27-.35.41l-.33.43a10.15,10.15,0,0,0-.88,1.39l-.19.38,0,.06c-.09.21-.18.42-.26.63s-.11.29-.16.45a7.8,7.8,0,0,0-.27,1.16,8.5,8.5,0,0,0-.11,1.4c0,.15,0,.31,0,.47s0,.26,0,.39.08.53.14.78a8.2,8.2,0,0,0,.31,1l.15.35a4.09,4.09,0,0,0,.23.47,7.48,7.48,0,0,0,.57.93,5,5,0,0,0,.36.48l.32.38a5.14,5.14,0,0,0,.38.42c.27.28.55.56.85.82l-.81.4a5.06,5.06,0,0,0-.46.27l-.12.08-.39.27-.05,0-.33.28a3,3,0,0,0-.25.25,1.7,1.7,0,0,0-.29.31,3.47,3.47,0,0,0-.35.43l-.08.09a4.53,4.53,0,0,0-.26.4l-.05.07c-.09.15-.18.3-.26.46s-.16.33-.23.5a.25.25,0,0,0,0,.07,5,5,0,0,0-.18.5,5.4,5.4,0,0,0-.18.57,10.31,10.31,0,0,0-.3,1.86,10.46,10.46,0,0,0,0,1.77,6.05,6.05,0,0,0,.41,1.8l0,.05c.09.2.17.4.27.58s.21.39.33.56l0,.05a7.69,7.69,0,0,0,.78,1,5.4,5.4,0,0,0,.65.56l.23.16a2.65,2.65,0,0,0,.4.22,2.54,2.54,0,0,0,.45.17,5.91,5.91,0,0,0-.4,1.17,2.21,2.21,0,0,0-.07.46,3.91,3.91,0,0,0,0,.49,4.37,4.37,0,0,0,.44,1.91,5.19,5.19,0,0,0,.57.91,4.39,4.39,0,0,0,.33.4c1.67,1.81,4.39,2.21,6.86,2.09a5.57,5.57,0,0,0-.41.45l-.1.15-.14.2a.83.83,0,0,0-.08.12,1.92,1.92,0,0,0-.14.33.51.51,0,0,0-.07.17.75.75,0,0,0-.05.16l0,.15a.61.61,0,0,0,0,.13.14.14,0,0,0,0,.06s0,.09,0,.13a.81.81,0,0,1,0,.16c0,.08,0,.16,0,.24s0,.11,0,.16a.43.43,0,0,1,0,.11,1,1,0,0,0,0,.25,2.21,2.21,0,0,0,.05.25v0a2,2,0,0,1,.07.26l.09.25c0,.09.06.19.1.28l0,.1.06.14c0,.07.07.14.11.2l0,.07.11.2,0,0,.17.26.15.23.18.25.18.24,0,0,.15.18.11.12a1.13,1.13,0,0,0,.1.13c.06,0,.11.11.17.17a3,3,0,0,0,.25.25l.14.14a2.26,2.26,0,0,0,.29.26l.11.09a2.16,2.16,0,0,0,.33.27l.32.25a6.58,6.58,0,0,0-.57-.4,2.61,2.61,0,0,0-.28-.17c-.15-.09-.33-.18-.49-.26l-.27-.13-.54-.2-.26-.09a3.75,3.75,0,0,0-.6-.13l-.24,0c-.21,0-.42,0-.64-.05h-.26a5,5,0,0,0-.66.05l-.27,0a6.19,6.19,0,0,0-.7.14l-.29.07-.37.12-.37.13-.28.1c-.19.08-.39.17-.58.27s-.38.21-.56.32a4.71,4.71,0,0,0-.45.33,5.17,5.17,0,0,0-.51.42l-.16.16a2.43,2.43,0,0,0-.26.29.7.7,0,0,0-.14.16,3,3,0,0,0-.3.4,1.81,1.81,0,0,0-.2.33,2.69,2.69,0,0,0-.16.29,1.61,1.61,0,0,0-.15.36.54.54,0,0,0-.05.11,1.73,1.73,0,0,0-.08.27c0,.13-.07.25-.1.38a4,4,0,0,0,0,1.54,3.9,3.9,0,0,0,.22.77l-1.4.35-.32.11-.31.13-.49.25a2.14,2.14,0,0,0-.39.24,2.74,2.74,0,0,0-.43.3l-.07.05a3.8,3.8,0,0,0-.37.33,3.41,3.41,0,0,0-.38.38,4.16,4.16,0,0,0-.32.39,7.41,7.41,0,0,0-.49.71c-.09.15-.18.32-.27.49s-.2.44-.3.68-.17.43-.24.66c0,0,0,.05,0,.07a0,0,0,0,1,0,0l0,.2c-.05.19-.1.38-.13.56,0,0,0,.05,0,.07a5.9,5.9,0,0,0-.1.7.25.25,0,0,0,0,.08,6.23,6.23,0,0,0,0,.74c0,.18,0,.35,0,.53s0,.27,0,.41l.06.42s0,0,0,.06,0,.24.07.35.11.39.16.58l.14.39a6.86,6.86,0,0,0,.38.83,8,8,0,0,0,1.4,1.83c.13.11.26.22.38.34a8.93,8.93,0,0,0,.8.57,3.58,3.58,0,0,0,.42.25,3.09,3.09,0,0,0,.44.24,6.55,6.55,0,0,0-.63.19l-.4.16a3.52,3.52,0,0,0-.39.16l-1.33.81-.26.21a3.17,3.17,0,0,0-.34.3c-.16.14-.3.3-.45.45s-.29.37-.42.55a2.51,2.51,0,0,0-.2.29,2.81,2.81,0,0,0-.32.55c-.11.19-.21.4-.3.6h0c-.08.21-.16.44-.23.66a4.94,4.94,0,0,0-.15.55c0,.12-.05.25-.07.38a4.67,4.67,0,0,0-.08.52,6.11,6.11,0,0,0,0,.73h0c0,.19,0,.38,0,.57S11.48,295.65,11.49,295.77Z"></path><path d="M135.83,208.12a6.72,6.72,0,0,0-9.33-1.79,6.89,6.89,0,0,0-1.42,1.32,6.71,6.71,0,0,0-11.28,2.41,8,8,0,0,1,13,3.3,6.15,6.15,0,0,0,.1-1.15,6.66,6.66,0,0,0-.56-2.68,6.3,6.3,0,0,1,.79-.64,8,8,0,0,1,9.28.24A5.23,5.23,0,0,0,135.83,208.12Z"></path><path d="M141.53,184.52a5.39,5.39,0,0,1,7-2.91,5.29,5.29,0,0,1,1.34.8,5.38,5.38,0,0,1,9.25.08,6.49,6.49,0,0,0-4.6-.79,6.4,6.4,0,0,0-5.06,5.47,4.1,4.1,0,0,1-.27-.88,5.26,5.26,0,0,1,0-2.2,4.89,4.89,0,0,0-.72-.37,6.38,6.38,0,0,0-7.26,1.68A4.06,4.06,0,0,1,141.53,184.52Z"></path><path d="M194.42,184.72a4.12,4.12,0,0,1,5.82-.28,3.88,3.88,0,0,1,.75.93,4.11,4.11,0,0,1,6.65,2.44,4.91,4.91,0,0,0-8.17.88,3.42,3.42,0,0,1,0-.71,4,4,0,0,1,.57-1.58,4.47,4.47,0,0,0-.42-.45,4.9,4.9,0,0,0-5.67-.66A3.28,3.28,0,0,1,194.42,184.72Z"></path></g></g></g><g id="freepik--Floor--inject-5"><path id="freepik--floor--inject-5" d="M421,439.46C326.55,494,173.46,494,79,439.46s-94.42-142.9,0-197.41,247.51-54.51,341.93,0S515.38,384.94,421,439.46Z" style="fill:#f5f5f5"></path></g><g id="freepik--Clouds--inject-5"><path id="freepik--Cloud--inject-5" d="M327.32,31.68c0-3.51,3.85-5.95,8.21-6.37,5.14-.48,8.78,1.81,8.9,5.85,3.36-1.37,6.9-.49,6.64,3.2.87-1,4.14-1,5.31-.7a4.63,4.63,0,0,1,2.93,2.5,3.37,3.37,0,0,1,.3,1.89c2-.64,6.41-1,7.53.76,2,3.2-5.94,3.3-7.54,2.33-.34,2.49-8.85,2.9-10.91.6-1.61,1.62-3.92,2-6.42,2.13-4.21.25-6.79-1.18-10.07-2.85-3.58,3-9.76,3.08-13-.38-.82.77-3.09,1-4.9.58-1.19-.29-1.46-.79-1.46-.79a10.42,10.42,0,0,1-2.19.65c-2.33.49-6.68,0-4.85-2.13a5.51,5.51,0,0,1,3.85-1c1-2,5.11-3.9,7.46-2.2.09-2.43,2.31-4.33,5.43-4.81C323.61,30.83,326.13,30.69,327.32,31.68Z" style="fill:#f5f5f5"></path><path id="freepik--cloud--inject-5" d="M161.07,43.85c0-3.51,3.85-6,8.21-6.36,5.14-.49,8.78,1.8,8.9,5.85,3.36-1.38,6.9-.5,6.64,3.19.87-1,4.14-1,5.31-.69a4.58,4.58,0,0,1,2.93,2.49,3.46,3.46,0,0,1,.3,1.89c2-.64,6.41-1,7.53.76,2,3.2-5.94,3.3-7.54,2.33-.34,2.49-8.85,2.9-10.91.6-1.61,1.62-3.92,2-6.42,2.13-4.21.25-6.79-1.17-10.08-2.85-3.57,3-9.75,3.08-13-.38-.83.77-3.09,1-4.9.58-1.19-.29-1.46-.79-1.46-.79a10.42,10.42,0,0,1-2.19.65c-2.33.49-6.68,0-4.85-2.13a5.45,5.45,0,0,1,3.85-.94c1-2,5.11-3.91,7.46-2.21.09-2.43,2.3-4.33,5.43-4.81C157.36,43,159.87,42.86,161.07,43.85Z" style="fill:#f5f5f5"></path></g><g id="freepik--Shadows--inject-5"><ellipse id="freepik--Shadow--inject-5" cx="152.48" cy="423.78" rx="75.74" ry="41.69" transform="translate(-74.05 34.52) rotate(-10.41)" style="fill:#e0e0e0"></ellipse><ellipse id="freepik--shadow--inject-5" cx="361.02" cy="419.12" rx="80.88" ry="46.86" style="fill:#e0e0e0"></ellipse></g><g id="freepik--walkie-talkie--inject-5"><g id="freepik--walkie-talkie--inject-5"><path d="M189.35,169.79a12.6,12.6,0,0,0-6.54-9l-12.22-7.05c-7.71-4.44-21.8-4.47-40.64,6.41-28.12,16.23-45.66,44.54-47.22,57.13s-1.06,72.22,0,83.22c2.5,26,5.32,48.81,7.83,78.57,2.35,28,6.65,44.68,11.06,47.24l12.18,7a2.47,2.47,0,0,0,.83.31c4.69.8,17.23-4.29,27.49-10.21s22.8-15.32,27.49-21.54,9.4-28.64,11.91-61.3,5.32-58.72,7.83-87.62C190.41,240.78,190.91,180.57,189.35,169.79Z" style="fill:#2DC1F1"></path><path d="M113.52,433.19l-11.91-6.87c-4.4-2.55-8.69-19.25-11-47.23-2.51-29.77-5.33-52.58-7.84-78.58-1.06-11-1.56-70.62,0-83.21l12.17,7c-1.56,12.59-1.06,72.21,0,83.21,2.51,26,5.32,48.81,7.83,78.58C105,413.55,109.21,430.13,113.52,433.19Z" style="opacity:0.30000000000000004"></path><path d="M142.12,167.18c28.12-16.23,45.66-8.18,47.23,2.61s1.06,71,0,83.21c-2.51,28.9-5.33,55-7.83,87.62s-7.21,55.07-11.91,61.3-17.23,15.61-27.49,21.54-22.8,11-27.49,10.21-9.4-17.79-11.91-47.56-5.32-52.57-7.83-78.57c-1.06-11-1.56-70.63,0-83.22S114,183.42,142.12,167.18Z" style="fill:#2DC1F1"></path><path d="M142.12,167.18c28.12-16.23,45.66-8.18,47.23,2.61s1.06,71,0,83.21c-2.51,28.9-5.33,55-7.83,87.62s-7.21,55.07-11.91,61.3-17.23,15.61-27.49,21.54-22.8,11-27.49,10.21-9.4-17.79-11.91-47.56-5.32-52.57-7.83-78.57c-1.06-11-1.56-70.63,0-83.22S114,183.42,142.12,167.18Z" style="fill:#fff;opacity:0.2"></path><path d="M214.73,177.33a16.53,16.53,0,0,0-8.44-12c-3.35-1.92-16.6-9.57-20.22-11.67-8.75-5.07-23.9-4.95-43.95,6.63-31,17.92-50.34,49.72-52.33,65.78-1.64,13.13-1.17,73.68-.05,85.3,1,10,2,19.69,3,29.09,1.62,15.28,3.29,31.09,4.83,49.38,1.79,21.17,5.46,46.4,12.93,50.75.52.3,17.38,10.06,20.33,11.74a4.77,4.77,0,0,0,1.54.56c6,1,19.79-4.87,30-10.79s24-15.91,30-23.89c8.55-11.33,12.62-43.29,14.52-68.1,1.54-20.06,3.21-37.8,4.83-54.95,1-10.55,2-21.46,3-32.56C215.89,249.67,216.36,188.57,214.73,177.33Z" style="fill:#37474f"></path><path d="M130.82,452.3c-2.94-1.67-19.82-11.43-20.33-11.73C103,436.22,99.34,411,97.56,389.82c-1.53-18.29-3.21-34.09-4.83-49.39-1-9.38-2-19.1-3-29.08-1.13-11.62-1.6-72.18,0-85.29l20.27,11.7c-1.62,13.13-1.15,73.68,0,85.29,1,10,2,19.7,3,29.09,1.62,15.29,3.29,31.1,4.83,49.4C119.63,422.73,123.31,448,130.82,452.3Z" style="fill:#263238"></path><path d="M162.4,442.08c-10.25,5.92-24,11.82-30,10.79-8.55-1.46-12.61-28.72-14.52-51.34-1.54-18.29-3.21-34.1-4.83-49.39-1-9.39-2-19.1-3-29.09-1.12-11.61-1.59-72.16,0-85.29,2-16.07,21.3-47.87,52.34-65.78s50.33-8.41,52.33,5.35c1.63,11.24,1.16,72.34,0,85.25-1,11.1-2,22-3,32.56-1.62,17.15-3.29,34.89-4.83,54.95-1.9,24.81-6,56.77-14.52,68.1C186.41,426.17,172.64,436.17,162.4,442.08Z" style="fill:#455a64"></path><path d="M221.79,188.52a12.6,12.6,0,0,0-6.54-9l-12.21-7c-7.72-4.45-21.8-4.48-40.64,6.4-28.12,16.24-45.66,44.54-47.23,57.14s-1.06,72.21,0,83.21c2.51,26,5.33,48.81,7.83,78.58,2.36,28,6.65,44.68,11.06,47.24l12.18,7a2.56,2.56,0,0,0,.83.31c4.7.8,17.23-4.28,27.49-10.21s22.8-15.31,27.5-21.54,9.39-28.64,11.9-61.3,5.32-58.72,7.83-87.61C222.85,259.51,223.36,199.31,221.79,188.52Z" style="fill:#2DC1F1"></path><path d="M146,451.92c-2.2-1.25-11.63-6.7-11.91-6.86-4.41-2.56-8.7-19.25-11.06-47.24-2.5-29.77-5.33-52.57-7.83-78.57-1.06-11-1.56-70.63,0-83.22l12.17,7c-1.57,12.6-1.06,72.21,0,83.22,2.5,26,5.32,48.81,7.82,78.57C137.47,432.29,141.65,448.86,146,451.92Z" style="opacity:0.2"></path><path d="M174.56,185.92c28.12-16.24,45.66-8.19,47.23,2.6s1.06,71,0,83.22c-2.51,28.89-5.32,54.95-7.83,87.61s-7.2,55.08-11.9,61.3-17.23,15.62-27.5,21.54-22.79,11-27.49,10.21-9.4-17.79-11.9-47.56-5.33-52.57-7.83-78.57c-1.06-11-1.57-70.62,0-83.22S146.44,202.15,174.56,185.92Z" style="fill:#2DC1F1"></path><path d="M174.56,185.92c28.12-16.24,45.66-8.19,47.23,2.6s1.06,71,0,83.22c-2.51,28.89-5.32,54.95-7.83,87.61s-7.2,55.08-11.9,61.3-17.23,15.62-27.5,21.54-22.79,11-27.49,10.21-9.4-17.79-11.9-47.56-5.33-52.57-7.83-78.57c-1.06-11-1.57-70.62,0-83.22S146.44,202.15,174.56,185.92Z" style="fill:#fff;opacity:0.2"></path><path d="M213.86,275.34a2.62,2.62,0,0,0-2.7.21L138,317.8c-2.6,1.51-4.56,5.81-4.05,8.92l1.41,8.74a5.08,5.08,0,0,0,2.19,3.77l2.09,1.2a4.28,4.28,0,0,0,4.4-.35,4.87,4.87,0,0,1,3.36-.73l3.91,3.36a3.36,3.36,0,0,0,.54.39l2.08,1.2a4.31,4.31,0,0,0,4.39-.36L195,322.75a13.65,13.65,0,0,0,4.93-5.72l4.42-8.92a13.58,13.58,0,0,1,4.93-5.72c3.21-1.85,6-6.47,6.59-11L217.3,281c.3-2.21-.28-3.82-1.35-4.45Z" style="fill:#263238"></path><path d="M213.24,276.76,140.06,319c-2.61,1.5-4.56,5.8-4.06,8.92l1.42,8.73c.62,3.84,3.38,5.28,6.59,3.42h0c1.87-1.08,3.66-1.07,4.93,0l4.42,3.81c1.28,1.09,3.06,1.1,4.93,0L195,322.75a13.65,13.65,0,0,0,4.93-5.72l4.42-8.92a13.58,13.58,0,0,1,4.93-5.72h0c3.21-1.85,6-6.47,6.59-11L217.3,281C217.8,277.3,215.85,275.25,213.24,276.76Z" style="fill:#455a64"></path><path d="M155.79,315.12a1.21,1.21,0,0,0-1.23.1l-11,6.33a4.46,4.46,0,0,0-1.87,3.56v5.58a1.63,1.63,0,0,0,.65,1.51l2.68,1.55a1.19,1.19,0,0,0,1.22-.1l11-6.33a4.47,4.47,0,0,0,1.86-3.57v-5.57a1.66,1.66,0,0,0-.65-1.52C158.13,316.48,156.18,315.35,155.79,315.12Z" style="fill:#2DC1F1"></path><path d="M146.28,333.65l11-6.33a4.47,4.47,0,0,0,1.86-3.57v-5.57c0-1.38-.83-2-1.86-1.41l-11,6.33a4.46,4.46,0,0,0-1.87,3.56v5.58C144.41,333.61,145.25,334.24,146.28,333.65Z" style="fill:#fff;opacity:0.2"></path><path d="M145.09,333.76h0l-2.68-1.54a1.66,1.66,0,0,1-.65-1.52v-5.57a4.67,4.67,0,0,1,.43-1.84l2.69,1.56a4.31,4.31,0,0,0-.44,1.82v5.58A1.62,1.62,0,0,0,145.09,333.76Z" style="opacity:0.2"></path><path d="M174.17,304.51a1.19,1.19,0,0,0-1.22.09l-11,6.34a4.46,4.46,0,0,0-1.87,3.56v5.58a1.64,1.64,0,0,0,.66,1.51l2.67,1.55a1.21,1.21,0,0,0,1.22-.1l11-6.34a4.45,4.45,0,0,0,1.86-3.56v-5.58a1.65,1.65,0,0,0-.65-1.51Z" style="fill:#2DC1F1"></path><path d="M164.66,323l11-6.34a4.45,4.45,0,0,0,1.86-3.56v-5.58c0-1.37-.83-2-1.86-1.41l-11,6.33a4.47,4.47,0,0,0-1.86,3.57v5.58C162.8,323,163.63,323.63,164.66,323Z" style="fill:#fff;opacity:0.2"></path><path d="M163.47,323.15h0c-.4-.23-2.34-1.37-2.67-1.55a1.66,1.66,0,0,1-.65-1.52V314.5a4.62,4.62,0,0,1,.43-1.83l2.68,1.55a4.31,4.31,0,0,0-.44,1.83v5.57A1.62,1.62,0,0,0,163.47,323.15Z" style="opacity:0.2"></path><path d="M183.36,314.53a1.19,1.19,0,0,0-1.22.1l-11,6.33a4.45,4.45,0,0,0-1.86,3.56v5.58a1.63,1.63,0,0,0,.65,1.51l2.67,1.55a1.19,1.19,0,0,0,1.22-.1l11-6.33a4.48,4.48,0,0,0,1.87-3.57v-5.58a1.65,1.65,0,0,0-.66-1.51Z" style="fill:#2DC1F1"></path><path d="M173.85,333.06l11-6.33a4.48,4.48,0,0,0,1.87-3.57v-5.58c0-1.37-.84-2-1.87-1.41l-11,6.34a4.45,4.45,0,0,0-1.86,3.56v5.58C172,333,172.82,333.65,173.85,333.06Z" style="fill:#fff;opacity:0.2"></path><path d="M172.66,333.17h0c-.4-.23-2.34-1.37-2.67-1.55a1.64,1.64,0,0,1-.65-1.51v-5.57a4.67,4.67,0,0,1,.43-1.84l2.68,1.56a4.24,4.24,0,0,0-.44,1.82v5.57A1.62,1.62,0,0,0,172.66,333.17Z" style="opacity:0.2"></path><path d="M165,325.14a1.2,1.2,0,0,0-1.23.09L158,328.57a4.47,4.47,0,0,0-1.86,3.57v5.57a1.66,1.66,0,0,0,.65,1.52l2.68,1.54a1.19,1.19,0,0,0,1.22-.1l5.78-3.34a4.45,4.45,0,0,0,1.86-3.56v-5.58a1.65,1.65,0,0,0-.65-1.51C167.33,326.5,165.38,325.36,165,325.14Z" style="fill:#2DC1F1"></path><path d="M160.67,340.67l5.78-3.34a4.45,4.45,0,0,0,1.86-3.56v-5.58c0-1.37-.83-2-1.86-1.41l-5.78,3.34a4.46,4.46,0,0,0-1.87,3.56v5.58C158.8,340.63,159.64,341.27,160.67,340.67Z" style="fill:#fff;opacity:0.2"></path><path d="M159.48,340.78h0c-.4-.23-2.35-1.37-2.68-1.55a1.66,1.66,0,0,1-.65-1.52v-5.57a4.67,4.67,0,0,1,.43-1.84l2.69,1.56a4.31,4.31,0,0,0-.44,1.83v5.57A1.59,1.59,0,0,0,159.48,340.78Z" style="opacity:0.2"></path><path d="M196.55,306.91a1.19,1.19,0,0,0-1.22.1l-5.78,3.34a4.46,4.46,0,0,0-1.87,3.56v5.58a1.63,1.63,0,0,0,.65,1.51l2.68,1.55a1.19,1.19,0,0,0,1.22-.1l5.78-3.34a4.45,4.45,0,0,0,1.86-3.56V310a1.64,1.64,0,0,0-.65-1.51Z" style="fill:#2DC1F1"></path><path d="M192.23,322.45l5.78-3.34a4.45,4.45,0,0,0,1.86-3.56V310c0-1.37-.83-2-1.86-1.41l-5.78,3.34a4.46,4.46,0,0,0-1.87,3.56V321C190.36,322.41,191.2,323,192.23,322.45Z" style="fill:#fff;opacity:0.2"></path><path d="M191,322.56h0L188.33,321a1.66,1.66,0,0,1-.65-1.52v-5.57a4.67,4.67,0,0,1,.43-1.84l2.69,1.56a4.31,4.31,0,0,0-.44,1.82V321A1.62,1.62,0,0,0,191,322.56Z" style="opacity:0.2"></path><path d="M192.54,293.9a1.19,1.19,0,0,0-1.22.1l-11,6.33a4.45,4.45,0,0,0-1.86,3.56v5.58a1.63,1.63,0,0,0,.65,1.51l2.68,1.55a1.19,1.19,0,0,0,1.22-.1l11-6.33a4.48,4.48,0,0,0,1.87-3.57V297a1.65,1.65,0,0,0-.65-1.51Z" style="fill:#2DC1F1"></path><path d="M183,312.43l11-6.33a4.48,4.48,0,0,0,1.87-3.57V297c0-1.37-.84-2-1.87-1.41l-11,6.34a4.46,4.46,0,0,0-1.87,3.56V311C181.17,312.39,182,313,183,312.43Z" style="fill:#fff;opacity:0.2"></path><path d="M181.85,312.54h0c-.4-.23-2.35-1.37-2.68-1.55a1.64,1.64,0,0,1-.65-1.51V303.9a4.67,4.67,0,0,1,.43-1.84l2.69,1.56a4.24,4.24,0,0,0-.44,1.82V311A1.62,1.62,0,0,0,181.85,312.54Z" style="opacity:0.2"></path><path d="M210.92,283.29a1.19,1.19,0,0,0-1.22.1l-11,6.33a4.46,4.46,0,0,0-1.87,3.56v5.58a1.63,1.63,0,0,0,.66,1.51l2.67,1.55a1.19,1.19,0,0,0,1.22-.1l11-6.33a4.47,4.47,0,0,0,1.86-3.57v-5.57a1.66,1.66,0,0,0-.65-1.52Z" style="fill:#2DC1F1"></path><path d="M201.41,301.82l11-6.33a4.47,4.47,0,0,0,1.86-3.57v-5.57c0-1.38-.83-2-1.86-1.41l-11,6.33a4.45,4.45,0,0,0-1.86,3.56v5.58C199.55,301.78,200.38,302.41,201.41,301.82Z" style="fill:#fff;opacity:0.2"></path><path d="M200.22,301.93h0l-2.67-1.54a1.66,1.66,0,0,1-.65-1.52v-5.57a4.67,4.67,0,0,1,.43-1.84L200,293a4.31,4.31,0,0,0-.44,1.82v5.58A1.62,1.62,0,0,0,200.22,301.93Z" style="opacity:0.2"></path><path d="M175.53,343.16c-5.73,3.3-11.09,8.44-15.71,14.67l31.41-18.14C186.61,338.8,181.25,339.85,175.53,343.16Zm21.21-1.25L154.32,366.4a84.38,84.38,0,0,0-3.93,8.05l50.27-29A17.77,17.77,0,0,0,196.74,341.91Zm6.5,7.43-55.43,32c-.74,2.28-1.38,4.58-1.9,6.88L205.14,354A27.66,27.66,0,0,0,203.24,349.34Zm-27.71,77.51c5.72-3.3,11.08-8.44,15.7-14.66l-31.41,18.13C164.44,431.21,169.8,430.16,175.53,426.85Zm-21.21,1.25,42.42-24.49a86.77,86.77,0,0,0,3.92-8.05l-50.27,29A17.35,17.35,0,0,0,154.32,428.1Zm-6.51-7.43,55.43-32c.74-2.28,1.38-4.58,1.9-6.88L145.91,416A27.33,27.33,0,0,0,147.81,420.67Zm-3-9.43,61.47-35.5a58.56,58.56,0,0,0,.58-6.12l-62.63,36.16A43.52,43.52,0,0,0,144.79,411.24Zm61.47-52.47-61.47,35.5a61.4,61.4,0,0,0-.58,6.12l62.63-36.16A41.91,41.91,0,0,0,206.26,358.77Z" style="fill:#455a64"></path><path d="M131.74,312.2V240.73A4.74,4.74,0,0,1,133.9,237l81.33-47c1.19-.69,2.16-.13,2.16,1.25v71.47a4.76,4.76,0,0,1-2.16,3.74l-81.33,47C132.7,314.14,131.74,313.58,131.74,312.2Z" style="fill:#2DC1F1"></path><path d="M209.62,262.48l-72.69,42c-1.19.69-2.16.13-2.16-1.25V243.25a4.79,4.79,0,0,1,2.16-3.74l72.69-42c1.19-.69,2.16-.13,2.16,1.25v60A4.78,4.78,0,0,1,209.62,262.48Z" style="fill:#455a64"></path><path d="M216.85,264.68a4.35,4.35,0,0,1-1.62,1.81l-81.33,47a1.57,1.57,0,0,1-1.48.17l3.14-8.95a1.67,1.67,0,0,0,1.37-.23l72.69-42a4.26,4.26,0,0,0,1.28-1.23Z" style="opacity:0.15"></path><path d="M135.56,304.68l-3.14,8.95a1.49,1.49,0,0,1-.68-1.42V240.73a4.22,4.22,0,0,1,.53-1.93l3.12,2.35a4.22,4.22,0,0,0-.63,2.11V303.2A1.43,1.43,0,0,0,135.56,304.68Z" style="opacity:0.30000000000000004"></path><path d="M105.33,239.71l-12.1-7A1.26,1.26,0,0,0,92,232.6c-.33.18-3.75,2.16-4.07,2.35a1.27,1.27,0,0,0-.54,1.11l-.69,23.44a3.64,3.64,0,0,0,1.67,3l12.1,7a1.24,1.24,0,0,0,1.26.11l4-2.34a1.25,1.25,0,0,0,.54-1.11l.69-23.43A3.67,3.67,0,0,0,105.33,239.71Z" style="fill:#2DC1F1"></path><path d="M87.38,236.06l-.69,23.44a3.64,3.64,0,0,0,1.67,3l12.1,7a1.1,1.1,0,0,0,1.79-1l.69-23.43a3.64,3.64,0,0,0-1.67-3l-12.1-7A1.09,1.09,0,0,0,87.38,236.06Z" style="opacity:0.2"></path><path d="M107,242.71l-.69,23.43a1.25,1.25,0,0,1-.54,1.11l-4,2.29a1.35,1.35,0,0,0,.44-1.06l.7-23.43a3.38,3.38,0,0,0-.47-1.69l4.06-2.35A3.37,3.37,0,0,1,107,242.71Z" style="fill:#fff;opacity:0.2"></path><path d="M103.73,276.25l-12.11-7a1.17,1.17,0,0,0-1.21-.1c-.31.18-3.58,2.25-3.89,2.45a1.29,1.29,0,0,0-.48,1.15l.25,21.8a3.89,3.89,0,0,0,1.75,3l12.1,7a1.17,1.17,0,0,0,1.23.1l3.87-2.45a1.25,1.25,0,0,0,.48-1.14l-.24-21.81A3.92,3.92,0,0,0,103.73,276.25Z" style="fill:#2DC1F1"></path><path d="M86,272.76l.25,21.8a3.89,3.89,0,0,0,1.75,3l12.1,7c1,.55,1.72.08,1.71-1l-.24-21.81a3.92,3.92,0,0,0-1.75-3l-12.11-7C86.8,271.16,86,271.63,86,272.76Z" style="opacity:0.2"></path><path d="M105.48,279.29l.25,21.81a1.27,1.27,0,0,1-.49,1.14l-3.78,2.39a1.4,1.4,0,0,0,.39-1.09l-.24-21.8a3.52,3.52,0,0,0-.53-1.72l3.88-2.46A3.57,3.57,0,0,1,105.48,279.29Z" style="fill:#fff;opacity:0.2"></path><path d="M196.28,149.32c0-2-1.35-4.09-4.05-5.65-5.4-3.11-14.15-3.11-19.55,0-2.69,1.56-4,3.6-4.05,5.64s0,2.81,0,4.86,1.35,4.08,4.05,5.64a20,20,0,0,0,9.78,2.34c3.54,0,6.92-1.33,13.82-.76Z" style="fill:#263238"></path><path d="M172.68,155c5.4,3.12,14.15,3.12,19.55,0,2.7-1.56,4.05-3.6,4.05-5.64s-1.35-4.09-4.05-5.65c-5.4-3.11-14.15-3.11-19.55,0-2.69,1.56-4,3.6-4,5.64S170,153.4,172.68,155Z" style="fill:#455a64"></path><path d="M194.62,137.18c0-1.79-1.18-3.59-3.56-5-4.75-2.75-12.45-2.75-17.2,0-2.38,1.37-3.57,3.16-3.57,5v11.41c0,1.8,1.19,3.6,3.57,5,4.75,2.75,12.45,2.75,17.2,0,2.38-1.37,3.56-3.16,3.56-5Z" style="fill:#37474f"></path><path d="M173.86,142.15c4.75,2.74,12.45,2.74,17.2,0,2.38-1.37,3.57-3.17,3.57-5s-1.19-3.59-3.57-5c-4.75-2.75-12.45-2.75-17.2,0-2.38,1.37-3.57,3.16-3.57,5S171.48,140.78,173.86,142.15Z" style="fill:#455a64"></path><path d="M100.35,191.9c0-2,1.35-4.09,4.05-5.64,5.4-3.12,14.15-3.12,19.55,0,2.7,1.55,4,3.59,4,5.63v4.86c0,2-1.2,3.49-3.83,6.82-2.43,3.09-5.73,8.47-10,15.65-5.09,8.58-13.83,9.32-13.83-5.44Z" style="fill:#263238"></path><path d="M124,197.54c-5.4,3.12-14.15,3.12-19.55,0-2.7-1.56-4.05-3.6-4.05-5.64s1.35-4.09,4.05-5.64c5.4-3.12,14.15-3.12,19.55,0,2.7,1.55,4,3.59,4,5.63S126.65,196,124,197.54Z" style="fill:#455a64"></path><path d="M121.63,40.82h0a3.71,3.71,0,0,0-2.18-3,11.65,11.65,0,0,0-10.54,0,3.7,3.7,0,0,0-2.19,3v0C106.24,52.39,102,171.78,102,191.11v.07c0,1.8,1.19,3.59,3.56,5,4.75,2.74,12.46,2.74,17.21,0,2.38-1.38,3.57-3.18,3.56-5h0C126.34,172,122.1,52.13,121.63,40.82Z" style="fill:#37474f"></path><path d="M121.63,35a7.46,7.46,0,0,0-14.91,0h0v5.82a3.7,3.7,0,0,0,2.19,3,11.65,11.65,0,0,0,10.54,0,3.71,3.71,0,0,0,2.18-3Z" style="fill:#2DC1F1"></path><g id="freepik--Lines--inject-5"><path d="M238.9,346.69a2.07,2.07,0,0,1-.69-4l36-12.65a2.07,2.07,0,1,1,1.37,3.91l-36,12.65A2.09,2.09,0,0,1,238.9,346.69Z" style="fill:#e6e6e6"></path><path d="M230.78,334.82a2.08,2.08,0,0,1-1.58-3.42L254,302.46a2.07,2.07,0,0,1,3.14,2.7l-24.81,28.93A2.07,2.07,0,0,1,230.78,334.82Z" style="fill:#e6e6e6"></path><path d="M262.72,398.81a2.09,2.09,0,0,1-1.35-.5L232.43,373.5a2.07,2.07,0,0,1,2.7-3.15l28.94,24.81a2.08,2.08,0,0,1-1.35,3.65Z" style="fill:#e6e6e6"></path><path d="M277.47,368.05a1.72,1.72,0,0,1-.39,0l-37.46-7a2.07,2.07,0,1,1,.76-4.07l37.47,7a2.07,2.07,0,0,1-.38,4.11Z" style="fill:#e6e6e6"></path></g></g></g><g id="freepik--Character--inject-5"><g id="freepik--character--inject-5"><g id="freepik--Bottom--inject-5"><path d="M348.37,387.23l2.35-20.92-23.83-2.15s1,16.13.87,23.53c-.07,3.48-2.53,10-2.53,10s10,5.17,15.15,3.06S349,390.51,348.85,389,348.37,387.23,348.37,387.23Z" style="fill:#ffa8a7"></path><path d="M297.61,420.15c-.33,0-.57,3,1.24,4.52,2.09,1.72,8.75,5,16.72,3.84s12.27-3.67,15.42-6.36,7.56-6.49,11.17-7.34a25.81,25.81,0,0,0,8.9-4.59c1.06-1,.83-5.58.83-5.58Z" style="fill:#263238"></path><path d="M348.37,387.19a1.29,1.29,0,0,1,1.23,1.05c.27,1.24.61,4.88,1.17,6.93.79,2.85,1.39,8.7,1,11s-6.72,5.24-10.2,6.62a44.62,44.62,0,0,0-11.21,7.25c-3.7,3.11-11.55,6.42-16.76,6.48-6.17.06-13.15-1.79-14.79-4.58-2-3.45-3.54-7.47,5.52-11.8,1.72-.82,7.73-4.47,9.78-5.79,5.54-3.57,9.43-6.83,11.89-13a3.42,3.42,0,0,1,1.28-1.9,2.92,2.92,0,0,1,1.78-.19c1.52.18,7.62.9,9,1.53,1.23.55,3,1.19,3,2.74a5.05,5.05,0,0,1-.32,1.58c-.1.32-.18.74.11.92s.61,0,.85-.25a23.66,23.66,0,0,0,2.41-2.95,25.58,25.58,0,0,1,2.3-2.68,13.82,13.82,0,0,0,1.55-1C348.5,388.59,348.36,387.92,348.37,387.19Z" style="fill:#455a64"></path><path d="M330.35,420.08a61,61,0,0,1,4.92-3.76h0s-10.63,6.62-15,3.77c-2.84-1.83-1.55-4.14-1.49-4.87s-9.93-5.73-12.65-6h0a19.73,19.73,0,0,1-1.78,1c-7.08,2.93-8,6.58-6.69,11.11,1.64,2.79,7.89,5.59,15.86,5.45C318.7,426.65,326.65,423.19,330.35,420.08Z" style="fill:#37474f"></path><path d="M319.46,413.07c-5.65,2.34-3.2,3.34-1.6,3.54s11.06-5.47,16.81-10.12c6-4.85,10.63-11.3,12.86-13.08.83-.66,1.72-1.48,2.51-2.24-.17-1.23-.31-2.35-.44-2.93a1.29,1.29,0,0,0-1.23-1.05c0,.73.13,1.4-.41,2a13.82,13.82,0,0,1-1.55,1,25.58,25.58,0,0,0-2.3,2.68,23.66,23.66,0,0,1-2.41,2.95C336.85,402.09,325.1,410.73,319.46,413.07Z" style="fill:#37474f"></path><path d="M318.24,415.78a.61.61,0,0,0,.36-.13.54.54,0,0,0,.06-.78c-1.64-1.91-9.33-6.37-13.5-5.85a.56.56,0,0,0-.49.62.55.55,0,0,0,.63.48c3.9-.48,11.21,3.95,12.5,5.46A.6.6,0,0,0,318.24,415.78Z" style="fill:#263238"></path><path d="M323.15,412.69a.58.58,0,0,0,.35-.13.56.56,0,0,0,.07-.79c-1.64-1.9-9.33-6.36-13.51-5.84a.55.55,0,1,0,.14,1.1c3.9-.47,11.21,4,12.51,5.46A.57.57,0,0,0,323.15,412.69Z" style="fill:#263238"></path><path d="M328.06,409.76a.59.59,0,0,0,.35-.14.54.54,0,0,0,.06-.78c-1.64-1.9-9.33-6.37-13.5-5.84a.55.55,0,1,0,.14,1.1c3.9-.48,11.21,3.95,12.51,5.46A.57.57,0,0,0,328.06,409.76Z" style="fill:#263238"></path><path d="M332.59,406.42a.55.55,0,0,0,.42-.91c-1.64-1.91-9.35-6.36-13.51-5.84a.55.55,0,0,0,.14,1.1c3.9-.48,11.21,4,12.51,5.46A.54.54,0,0,0,332.59,406.42Z" style="fill:#263238"></path><path d="M337,403.1a.63.63,0,0,0,.35-.13.55.55,0,0,0,.08-.78c-2.26-2.71-10.29-6.4-14.47-5.88a.55.55,0,0,0-.49.62.57.57,0,0,0,.63.48c3.76-.47,11.46,3.09,13.46,5.48A.56.56,0,0,0,337,403.1Z" style="fill:#263238"></path><path d="M387.85,397.05l-5.67-25.12L407,368.06l.39,24.8s1.9,6.67.5,9-16.28,4.71-17.65,3.18S387.85,397.05,387.85,397.05Z" style="fill:#ffa8a7"></path><path d="M390.32,436.64c.66,5.63,1.84,9.28,4.28,12.33s6.78,3.57,11.08,2.06,9.74-4.79,10.74-9.84.59-8.38-.65-13.53Z" style="fill:#263238"></path><path d="M407.36,392.86c1.8-.09,1.31,4.34,2.16,11.94.92,8.22,4.62,14.66,5.94,21.25,1.51,7.53,1.22,11-1.58,16s-13.32,10.87-18.94,4.88c-4.58-4.89-5.05-10.87-5-18.57,0-8,.1-13.58-.56-19.54-.63-5.7-3-11-1.5-11.79.16.83,1.69,6.6,2.69,6.51a10.49,10.49,0,0,0-.08-2.17,2.46,2.46,0,0,1,.4-1.91,8.31,8.31,0,0,1,2.89-1.47c1.75-.52,4.87-1.18,6.65-1.54.89-.18,1.78-.33,2.68-.43a7.91,7.91,0,0,1,2.28,0,1.41,1.41,0,0,1,1,.66,2.25,2.25,0,0,1,.14.86,5.39,5.39,0,0,0,.3,1.55c.08.22.27.47.52.39a.49.49,0,0,0,.27-.5C407.56,398.08,407.43,393.35,407.36,392.86Z" style="fill:#455a64"></path><path d="M415,423.92c.23,1.09,1.64,8.28-.54,9.88-2.37,1.72-4-3.87-4-3.87s-5.79-.85-13.95,3.39c.48,1.14-.61,5.21-2.93,4.66s-3.62-8.83-3.63-8.94c0,7.39.59,13.17,5,17.91,5.62,6,16.13.13,18.94-4.88s3.09-8.49,1.58-16C415.31,425.3,415.14,424.6,415,423.92Z" style="fill:#37474f"></path><path d="M409.79,430.5C410,433.27,413,432,413,428s-2.12-13.47-2.9-19.9c-.52-9.24-.89-15.35-2.69-15.26,0,.1,0,.19,0,.28s.18,5.27.21,5.87c.32,5.65.39,16.62,1.2,21.72A79.39,79.39,0,0,1,409.79,430.5Z" style="fill:#37474f"></path><path d="M397.43,433.13a77.14,77.14,0,0,1-2.18-9.52c-.87-5.05-3.9-15.16-5.39-20.59-.49-.89-2-6-2-6-1.24.35,0,5.19.58,7.46s1.3,4.69,2,7.95c1.86,6.4,2,16,3.24,19.71S398.15,435.78,397.43,433.13Z" style="fill:#37474f"></path><path d="M396.3,433.57a.64.64,0,0,0,.24-.1,24.72,24.72,0,0,1,13.74-3,.74.74,0,0,0,.79-.52.54.54,0,0,0-.51-.66,25.74,25.74,0,0,0-14.69,3.17.59.59,0,0,0-.24.82A.65.65,0,0,0,396.3,433.57Z" style="fill:#263238"></path><path d="M394.51,427.73a.58.58,0,0,0,.22-.08,30.39,30.39,0,0,1,15.38-3.3.75.75,0,0,0,.78-.54.55.55,0,0,0-.54-.64,31.55,31.55,0,0,0-16.25,3.49.59.59,0,0,0-.27.82A.63.63,0,0,0,394.51,427.73Z" style="fill:#263238"></path><path d="M409.4,418.69a.74.74,0,0,0,.54-.47.53.53,0,0,0-.45-.69c-8.15-1.43-15.91,3.16-16.24,3.36a.59.59,0,0,0-.24.82.7.7,0,0,0,.91.14c.08,0,7.61-4.49,15.19-3.16A.71.71,0,0,0,409.4,418.69Z" style="fill:#263238"></path><path d="M408.67,413.36a.74.74,0,0,0,.54-.46.53.53,0,0,0-.44-.7c-9-1.72-16.25,3.14-16.56,3.35a.58.58,0,0,0-.18.84.7.7,0,0,0,.92.08c.07,0,7.08-4.71,15.43-3.11A.71.71,0,0,0,408.67,413.36Z" style="fill:#263238"></path><path d="M407.83,407.37a.75.75,0,0,0,.54-.45.54.54,0,0,0-.43-.71c-8.41-1.73-16.34,3.32-16.67,3.53a.59.59,0,0,0-.21.84.68.68,0,0,0,.92.1c.08-.05,7.74-4.92,15.55-3.31A.76.76,0,0,0,407.83,407.37Z" style="fill:#263238"></path><path d="M397.85,203.33c3.41,44.58,4.91,111.09,4.91,111.09.3,3.38,2.23,8.12,3.8,24.82,1.66,17.62,1.6,42.77,1.6,42.77s-14.89,6.36-24.15,3.07c0,0-9.94-37.72-14.76-58.47-4.55-19.64-7.91-50.34-7.91-50.34l-5.4,29.58s.68,12.71.36,21.6c-.37,10.35-6,49.95-6,49.95s-13.83,8.29-23.46.39c0,0-4.68-58.13-5-70.57-.61-24.41-1.31-72.41,1.58-103.89Z" style="fill:#37474f"></path><path d="M361.34,276.27l-4.86-31.71s-11.21-1.71-17-7.25c0,0,3.73,7.34,14.3,10.18l4.83,28.86-2.7,29.5Z" style="fill:#263238"></path><path d="M408.41,382.87c-4.16,3.26-16.27,6-24.56,3l-1.67-7c6.26,2.11,19.15.78,26.09-3.51Z" style="fill:#455a64"></path><path d="M350.34,378.22c-2.8,2.84-15.81,5.2-23.49.69l-.57-7c5.83,3.25,19.21,2.69,24.92-.64Z" style="fill:#455a64"></path><path d="M401.79,273s1.29,31.37,1.2,33.66-17.14,6.8-17.58,5.35c-.74-2.42-.55-7.81-2-33.8C397.52,276.34,401.79,273,401.79,273Z" style="fill:#455a64"></path><path d="M386,287.11a5.46,5.46,0,0,1,1.61-.13c.63,0,1.25,0,1.88-.1a29.15,29.15,0,0,0,3.93-.6,30.88,30.88,0,0,0,4.3-1.31c1.14-.43,2.23-1,3.37-1.45.11,0,.13.16.06.21a16.38,16.38,0,0,1-3.61,1.84,27.82,27.82,0,0,1-3.56,1.14,29.14,29.14,0,0,1-3.91.7c-.66.07-1.32.12-2,.14a4.17,4.17,0,0,1-2.08-.15C386,287.36,385.94,287.15,386,287.11Z" style="fill:#37474f"></path><path d="M393.28,283.54a.84.84,0,0,0,.29.72,1.21,1.21,0,0,0,1.83-1.16,1,1,0,0,0-.42-.71,1.21,1.21,0,0,0-.86-.22c-.37,0-.49.24-.66.56A1.75,1.75,0,0,0,393.28,283.54Zm.7-.71a.64.64,0,0,1,.48-.13c.53.06.62.9.19,1.15a.61.61,0,1,1-.67-1Z" style="fill:#37474f"></path></g><g id="freepik--Top--inject-5"><path d="M344.32,120.86c-9.92.49-14.72,3.77-28.44,12.76-11.91,7.8-34.88,22-34.88,22s-2.68,19.67,9,19.67c4.68,0,11.11-1.18,18.93-5.17,10.94-5.59,20.87-11.25,20.87-11.25Z" style="fill:#37474f"></path><path d="M296.41,112.67c-1.07-2.54-1.89-4.45-2.73-6.5a11.37,11.37,0,0,1-.56-4.9c0-2-.34-4.6.56-5s2.78.33,3.77,2.56.64,4.16,1.73,5.69,1.65,2.28,1.65,2.28Z" style="fill:#f0997a"></path><path d="M291.52,93.5a1.9,1.9,0,0,1,.14-1.66l1-1.85c.64-1.16,2.45-2.25,5.71-2.31,4.86-.09,9.3,2.18,10.48,3.68s5.71,9.18,6.43,10.68c1.69,3.53,3.09,6.67,5.07,10.69,1.86,3.77,2.6,6.25,2.23,6.92l-1,1.84a.27.27,0,0,1-.08.1c-.54.47-2.54.79-4.32.82a16.48,16.48,0,0,1-5.19-.64c-1.09-.44-3.42-3-6.27-7s-5.22-7.12-7.78-10.64C296.87,102.7,292.15,95,291.52,93.5Z" style="fill:#2DC1F1"></path><path d="M321.61,121.45c.19-.33,1-1.76,1-1.8.37-.67-.37-3.15-2.23-6.92-2-4-3.38-7.16-5.07-10.69-.72-1.5-5.26-9.19-6.43-10.68l-1,1.84c1.17,1.5,5.72,9.19,6.43,10.68,1.69,3.53,3.09,6.68,5.07,10.69C321.19,118.27,321.93,120.72,321.61,121.45Z" style="opacity:0.30000000000000004"></path><path d="M297.38,89.52c-4.87.09-6.49,2.48-5.86,4s5.35,9.2,6.43,10.68c2.56,3.52,4.93,6.64,7.78,10.64s5.18,6.51,6.27,7a16.48,16.48,0,0,0,5.19.64c1.78,0,3.78-.35,4.32-.82s-.17-3-2.15-7-3.38-7.16-5.07-10.69c-.71-1.49-5.26-9.18-6.43-10.68S302.24,89.43,297.38,89.52Z" style="fill:#2DC1F1"></path><path d="M297.38,89.52c-4.87.09-6.49,2.48-5.86,4s5.35,9.2,6.43,10.68c2.56,3.52,4.93,6.64,7.78,10.64s5.18,6.51,6.27,7a16.48,16.48,0,0,0,5.19.64c1.78,0,3.78-.35,4.32-.82s-.17-3-2.15-7-3.38-7.16-5.07-10.69c-.71-1.49-5.26-9.18-6.43-10.68S302.24,89.43,297.38,89.52Z" style="fill:#fff;opacity:0.2"></path><path d="M288.84,96.43a2.47,2.47,0,0,1,.16-2.19l1.69-3.06c.73-1.33,2.69-2.49,6.15-2.55,5.37-.1,10.31,2.49,11.81,4.4,1.22,1.56,5.84,9.36,6.6,10.94l1.86,4c1,2.08,2,4.24,3.2,6.71,1.41,2.85,2.88,6.37,2.26,7.51,0,.08-1.45,2.64-1.7,3.08a.7.7,0,0,1-.15.19c-.7.6-2.92.9-4.69.94a17.42,17.42,0,0,1-5.7-.75c-2-.79-5-4.58-7.13-7.62-1.75-2.45-3.34-4.6-4.87-6.67-.94-1.28-1.92-2.6-2.9-4C294.29,105.81,289.5,98,288.84,96.43Z" style="fill:#37474f"></path><path d="M320.87,125.24c.25-.44,1.66-3,1.7-3.08.63-1.14-.85-4.66-2.26-7.51-1.22-2.47-2.22-4.63-3.2-6.71l-1.86-4c-.76-1.58-5.38-9.38-6.6-10.94L307,96.1c1.22,1.56,5.84,9.36,6.6,10.94.65,1.36,1.27,2.68,1.86,4,1,2.08,2,4.24,3.2,6.71C320,120.58,321.5,124.11,320.87,125.24Z" style="fill:#263238"></path><path d="M316,126.37c1.77,0,4-.34,4.69-.94,1-.85-.61-4.66-2.11-7.71-1.22-2.47-2.22-4.63-3.2-6.71-.59-1.29-1.21-2.61-1.86-4-.76-1.58-5.38-9.38-6.6-10.94-1.5-1.91-6.43-4.5-11.8-4.4s-7.11,2.81-6.31,4.73c.66,1.57,5.45,9.38,6.59,10.95,1,1.35,2,2.67,2.9,4,1.53,2.07,3.12,4.22,4.87,6.67,2.16,3,5.15,6.83,7.13,7.62A17.42,17.42,0,0,0,316,126.37Z" style="fill:#455a64"></path><path d="M288.8,98.41a1.85,1.85,0,0,1,.15-1.65l1-1.85c.65-1.17,2.45-2.26,5.71-2.32,4.87-.09,9.31,2.18,10.48,3.68s5.72,9.19,6.43,10.68c1.69,3.53,3.09,6.68,5.07,10.69,1.86,3.77,2.6,6.25,2.23,6.92l-1,1.84a.44.44,0,0,1-.08.11c-.54.46-2.54.78-4.32.81a16.52,16.52,0,0,1-5.19-.64c-1.08-.43-3.42-3-6.27-7s-5.22-7.12-7.77-10.63C294.16,107.61,289.44,99.92,288.8,98.41Z" style="fill:#2DC1F1"></path><path d="M318.9,126.36l1-1.8c.37-.67-.37-3.14-2.23-6.92-2-4-3.38-7.16-5.07-10.69-.71-1.49-5.26-9.18-6.43-10.68l-1,1.84c1.18,1.5,5.72,9.19,6.43,10.68,1.69,3.53,3.09,6.68,5.07,10.69C318.47,123.18,319.21,125.63,318.9,126.36Z" style="opacity:0.2"></path><path d="M294.66,94.43c-4.86.09-6.49,2.48-5.86,4s5.36,9.2,6.44,10.69c2.55,3.51,4.93,6.64,7.77,10.63s5.19,6.52,6.27,7a16.52,16.52,0,0,0,5.19.64c1.78,0,3.78-.35,4.32-.81s-.17-3-2.15-7-3.38-7.16-5.07-10.69c-.71-1.49-5.25-9.18-6.43-10.68S299.53,94.34,294.66,94.43Z" style="fill:#2DC1F1"></path><path d="M294.66,94.43c-4.86.09-6.49,2.48-5.86,4s5.36,9.2,6.44,10.69c2.55,3.51,4.93,6.64,7.77,10.63s5.19,6.52,6.27,7a16.52,16.52,0,0,0,5.19.64c1.78,0,3.78-.35,4.32-.81s-.17-3-2.15-7-3.38-7.16-5.07-10.69c-.71-1.49-5.25-9.18-6.43-10.68S299.53,94.34,294.66,94.43Z" style="fill:#fff;opacity:0.2"></path><path d="M307.71,96l1-1.83a.19.19,0,0,1,.15-.11h.7a.16.16,0,0,1,.16.1l1.9,3a.54.54,0,0,1,0,.51l-1,1.84a.18.18,0,0,1-.15.11h-.7a.18.18,0,0,1-.15-.1l-1.91-3A.59.59,0,0,1,307.71,96Z" style="fill:#2DC1F1"></path><path d="M309.73,94.13l1.9,3a.54.54,0,0,1,0,.51l-1,1.84c-.08.14-.21.15-.3,0l-1.9-3a.54.54,0,0,1,0-.51l1-1.83A.16.16,0,0,1,309.73,94.13Z" style="opacity:0.2"></path><path d="M307.73,96.5l1.89,3a.19.19,0,0,0,.16.1h.69a.22.22,0,0,1-.14-.1l-1.9-3a.43.43,0,0,1-.07-.25h-.71A.57.57,0,0,0,307.73,96.5Z" style="fill:#fff;opacity:0.2"></path><path d="M310.74,100.55l1-1.83a.16.16,0,0,1,.15-.11h.69c.05,0,.1,0,.15.11l1.65,2.82a.58.58,0,0,1,0,.53l-1,1.83a.19.19,0,0,1-.15.11l-.69,0c-.05,0-.1,0-.15-.11l-1.65-2.82A.56.56,0,0,1,310.74,100.55Z" style="fill:#2DC1F1"></path><path d="M312.74,98.73l1.65,2.82a.58.58,0,0,1,0,.53l-1,1.83a.16.16,0,0,1-.3,0l-1.66-2.82a.62.62,0,0,1,0-.53l1-1.83C312.52,98.59,312.65,98.59,312.74,98.73Z" style="opacity:0.2"></path><path d="M310.75,101.07l1.65,2.82a.19.19,0,0,0,.15.11l.67,0a.22.22,0,0,1-.13-.11l-1.66-2.82a.55.55,0,0,1-.06-.26l-.69,0A.53.53,0,0,0,310.75,101.07Z" style="fill:#fff;opacity:0.2"></path><path d="M289.05,91.41a1,1,0,0,1,.08-1,3.27,3.27,0,0,1,2.51-1.51,1,1,0,0,1,.95.41l.38.63a1,1,0,0,1-.08,1A3,3,0,0,1,291.81,92,11.76,11.76,0,0,0,290,93C289.82,92.7,289.2,91.67,289.05,91.41Z" style="fill:#263238"></path><path d="M292.51,90.31A3.2,3.2,0,0,1,290,91.82a.89.89,0,0,1-.87-1.45,3.27,3.27,0,0,1,2.51-1.51,1,1,0,0,1,.95.41A1,1,0,0,1,292.51,90.31Z" style="fill:#455a64"></path><path d="M288.32,89.73a.94.94,0,0,1,.07-.92,2.87,2.87,0,0,1,2.21-1.33.92.92,0,0,1,.84.36l.89,1.47a.9.9,0,0,1-.08.91A2.81,2.81,0,0,1,290,91.55a.9.9,0,0,1-.84-.36Z" style="fill:#37474f"></path><path d="M291.37,88.76a2.87,2.87,0,0,1-2.21,1.33.9.9,0,0,1-.84-.36.94.94,0,0,1,.07-.92,2.87,2.87,0,0,1,2.21-1.33.92.92,0,0,1,.84.36A.91.91,0,0,1,291.37,88.76Z" style="fill:#455a64"></path><path d="M304.65,89.46a1,1,0,0,0-1-.41,3.22,3.22,0,0,0-2.5,1.51,1,1,0,0,0-.09,1l.38.62c.15.26.42.36,1,.58A24,24,0,0,1,305,94c1.31.7,2.49.12,1.35-1.77Z" style="fill:#263238"></path><path d="M302.06,92a3.24,3.24,0,0,0,2.51-1.51.9.9,0,0,0-.88-1.45,3.22,3.22,0,0,0-2.5,1.51,1,1,0,0,0-.09,1A1,1,0,0,0,302.06,92Z" style="fill:#455a64"></path><path d="M290.24,71.71h0a.53.53,0,0,1,.05-.55,1.75,1.75,0,0,1,1.35-.82.55.55,0,0,1,.51.22h0C293.11,72,302.88,87,304.38,89.49h0a.89.89,0,0,1-.07.91,2.87,2.87,0,0,1-2.21,1.33.9.9,0,0,1-.84-.36h0C299.78,88.91,291.05,73.2,290.24,71.71Z" style="fill:#37474f"></path><path d="M289.79,71a1.12,1.12,0,1,1,1.91-1.16h0l.45.74a.55.55,0,0,1,0,.56,1.75,1.75,0,0,1-1.35.82.55.55,0,0,1-.52-.23Z" style="fill:#2DC1F1"></path><path d="M295.31,125.2c.74-2,.9-3.73.75-9s-1.15-8.62-.32-10.09,3.45-5.83,4.51-7.37a14.69,14.69,0,0,1,3.76-2.9,13.29,13.29,0,0,1,3.77-1.94,22.5,22.5,0,0,1,4.89.24c1.38.15,1.31,2.35-.69,3.29s-3.13,1-4.51,2.22a44.69,44.69,0,0,0-4.31,5.57s4.18-3.37,5.66-4.27a19.48,19.48,0,0,1,4.85-1.7,3.36,3.36,0,0,1,3,.37c1.08.61,2,1.81,1.51,2.69a5.1,5.1,0,0,1-1.39,1.47,3.82,3.82,0,0,1,1.85-.08A2.82,2.82,0,0,1,320.2,106c.15,1,0,1.41-.33,1.62a4.45,4.45,0,0,1,1.68.73,2.39,2.39,0,0,1,.48,3.06c-.86,1.17-3,2.29-4.74,3.45a6.75,6.75,0,0,0-1.25,1,9.06,9.06,0,0,0-1,1.12,3.06,3.06,0,0,0-.33,1.53c0,.71-.08,1.43-.1,2.15a7.64,7.64,0,0,1-.09,1.72,10,10,0,0,1-3,4.68c-1.62,1.66-2.21,3.59-3.13,8.18-.87,4.28-3,16.81-3.81,21.94S303,167.29,297,170.58s-12.95,5-14.77-2.64-1.52-16.87.41-20.61,5.63-9.1,8.05-13A52.82,52.82,0,0,0,295.31,125.2Z" style="fill:#ffbda7"></path><path d="M303.16,105.25a6.17,6.17,0,0,1-3.83,1.57,12.31,12.31,0,0,0,5.05-3.32Z" style="fill:#f0997a"></path><path d="M304.38,110.14a8.19,8.19,0,0,0,3.18-1.35c.89-.72,1.82-1.5,2.79-2.16a12.54,12.54,0,0,1,3.14-1.64c1.11-.42,2.22-.82,3.34-1.18-1.06.51-2.13,1-3.21,1.45a13.75,13.75,0,0,0-3,1.7c-1,.64-1.87,1.38-2.85,2.08A7,7,0,0,1,304.38,110.14Z" style="fill:#f0997a"></path><path d="M319.87,107.62c-1.81,1.23-3.71,2.32-5.6,3.43a23.16,23.16,0,0,1-2.86,1.66,10.2,10.2,0,0,1-3.17.92,13.67,13.67,0,0,0,3-1.2,29.64,29.64,0,0,0,2.78-1.71C316,109.64,317.88,108.57,319.87,107.62Z" style="fill:#f0997a"></path><g id="freepik--Chest--inject-5"><path d="M355.93,120.57s25.82,1.43,32.26,4.37c2.94,1.34,9.39,9,8.05,27.41-.54,7.41-3.52,22.54-3.59,28.09-.09,7.85,6.86,33.35,6.86,33.35-24.23,14.89-67.06,10.32-75.74,2.35,0,0,2.94-33,3.86-49.9,0,0-4.64-7.82-4.26-13.08.56-7.73,2.16-10.47,9.23-19.1a144.54,144.54,0,0,1,12.09-13.19Z" style="fill:#455a64"></path></g><path d="M379.14,67.39c8.33.92,10.34,14.53,8.37,22.21-3.82,14.81-13.81,16.55-14.2,22.87l-15-8.78L346.7,96.86c-3.05-1.79-5.11-2.42-8.27-4.31A8.78,8.78,0,0,1,334.87,89c-.73-2-.74-3.83.58-4.89-1.85.94-3.14,1-4.67-.06a3.72,3.72,0,0,1-1.13-3.89c.4.72,2,.74,2.13-1,.17-2,.71-3.89,3.78-5.18,7.34-16,22.4-19.94,28.23-18.66C370.32,56.77,377.15,60.53,379.14,67.39Z" style="fill:#263238"></path><path d="M373,118.4l.83-13.73a6,6,0,0,0,7.37-1.47c4.11-4.26,4.51-8.9,2.27-11.88-2.47-3.29-7.94-2-10.31,2-3.57.85-5-4.25-2.31-9.48,0,0-18.32,8.57-25.32-12-2.17-2-5.08-.38-6.26,2.35s-3.24,8-2.92,19.67c.37,13.06,4.06,17,7.64,19.17,2.23,1.37,5.37,1.77,9.2,1.78l-.2,3.81h0c-.08,1.91-.53,2-2.18,2.07l-2.48.14s-6.18,7.25,5.65,8.78c17.67,2.3,27.27-6.46,27.27-6.46s-1.11-.19-4.13-.64S373.21,121,373,118.4Z" style="fill:#ffbda7"></path><path d="M350.77,120.68A72.57,72.57,0,0,0,330.1,163.8c-1.37,14.21-1.75,73-1.75,73s-8.22,0-12-2.75c2.22-32.58,4.5-64.49,6.09-80.8a33.56,33.56,0,0,1,5.6-14.73,67.06,67.06,0,0,1,16.3-17.62Z" style="fill:#2DC1F1"></path><path d="M373.49,120.55c-.76,12.24-4.43,27.77-4.58,41-.29,23.94,7.14,77.06,7.14,77.06s17.23-.26,28-7.83c.06-5.76-4.83-26-7.25-34.39s-3.35-19-.21-32.36.88-29.89-5.31-39.2Z" style="fill:#2DC1F1"></path><path d="M373.71,220.51c14.12-1.11,23.05-4.8,27.4-7.14-.35-1.55-.68-3.06-1.08-4.64-5.67,2.92-17.36,6.07-26.9,6.91C373.32,217.32,373.52,219,373.71,220.51Z" style="fill:#fafafa"></path><path d="M379.3,101.51a1.79,1.79,0,1,1-1.75-1.83A1.79,1.79,0,0,1,379.3,101.51Z" style="fill:#2DC1F1"></path><path d="M357.58,101l-6.37,2.06a3.29,3.29,0,0,0,4.16,2.27A3.49,3.49,0,0,0,357.58,101Z" style="fill:#b16668"></path><path d="M357.18,102.48a3.68,3.68,0,0,0-3.67,2.88,3.11,3.11,0,0,0,1.86,0,3.43,3.43,0,0,0,2.31-2.79A2.73,2.73,0,0,0,357.18,102.48Z" style="fill:#f28f8f"></path><path d="M339.13,85.22l4.7-2.1a2.47,2.47,0,0,0-3.32-1.36A2.7,2.7,0,0,0,339.13,85.22Z" style="fill:#263238"></path><path d="M361.75,84.4l-4.58-2.49a2.5,2.5,0,0,1,3.46-1.11A2.73,2.73,0,0,1,361.75,84.4Z" style="fill:#263238"></path><polygon points="350.63 85.91 349.98 99.46 343.01 96.61 350.63 85.91" style="fill:#f0997a"></polygon><path d="M344.69,88.33a2.21,2.21,0,0,1-2,2.35,2.07,2.07,0,0,1-2.31-1.89,2.2,2.2,0,0,1,2-2.34A2.06,2.06,0,0,1,344.69,88.33Z" style="fill:#263238"></path><path d="M360.24,88.65a2.2,2.2,0,0,1-2,2.35A2.07,2.07,0,0,1,356,89.11a2.2,2.2,0,0,1,2-2.35A2.07,2.07,0,0,1,360.24,88.65Z" style="fill:#263238"></path><path d="M353.15,114.8c8.16-.86,16-3.56,17.77-7.29,0,0,.05,4.06-3.26,6C363,116.28,353,117.69,353,117.69Z" style="fill:#f0997a"></path><polygon points="288.08 165.65 344.15 173.34 368.4 238.81 314.92 230.09 288.08 165.65" style="fill:#ebebeb"></polygon><path d="M337.2,212.85c.45,1.77,3,7.74,9.48,9.06a52.47,52.47,0,0,0,15.57.31l-2.78-7.5Z" style="opacity:0.15"></path><path d="M305.18,173.47s-.32-.9-.7-2,2.79-1.55,7.1-1l8.26,1.1c4.31.57,8.12,1.94,8.51,3.06l.7,2Z" style="opacity:0.15"></path><path d="M300.46,166.11c-.24-.69,1-1,2.83-.77l3.28.49s-1.49-4.36,5.73-3.65,9.38,5.61,9.38,5.61l3.51.55c1.93.3,3.75,1.1,4.05,1.79l.56,1.24-28.88-4Z" style="fill:#2DC1F1"></path><path d="M300.46,166.11c-.24-.69,1-1,2.83-.77l3.28.49s-1.49-4.36,5.73-3.65,9.38,5.61,9.38,5.61l3.51.55c1.93.3,3.75,1.1,4.05,1.79l.56,1.24-28.88-4Z" style="opacity:0.30000000000000004"></path><path d="M328,174.87c-.33-.92-3-2-6.4-2.69,0-.12-.08-.24-.1-.33-.32-1,0-1.62,2.07-1.34l.07-.81-20-2.58.92.76c2.64.31,3.74.52,4.34,2.24.05.14.09.25.13.39-3.12-.18-5.21.27-4.9,1.18l.7,2,23.88,3.18Z" style="fill:#2DC1F1"></path><path d="M328,174.87c-.33-.92-3-2-6.4-2.69,0-.12-.08-.24-.1-.33-.32-1,0-1.62,2.07-1.34l.07-.81-20-2.58.92.76c2.64.31,3.74.52,4.34,2.24.05.14.09.25.13.39-3.12-.18-5.21.27-4.9,1.18l.7,2,23.88,3.18Z" style="opacity:0.4"></path><path d="M427.79,189.89A79.55,79.55,0,0,0,424,174.68l-22.68,10s-4.82,2.52-15.87,7.79c-6,2.86-11.35,5-16.58,3.93-1.55-.31-6.82-1-8.4-1.18s-3.42,0-5.13,0c-1.09,0-3.25-.37-3.25-.37l2.2,6,.46.18c1.39.56.45,1.57-.53,2a22.43,22.43,0,0,1-9,1.54,51.45,51.45,0,0,1-9.07-1.11,5.55,5.55,0,0,0-1.57-.16,1.81,1.81,0,0,0-1.36.72,1.88,1.88,0,0,0,.08,2,7,7,0,0,0,1.46,1.51,4.07,4.07,0,0,1,1.27,1.64c.34,1,0,2.11.46,3,.55,1.07,1.92,1.35,2.86,2.09a13.38,13.38,0,0,1,1.92,2.47,8.83,8.83,0,0,0,4,2.74c4.34,1.61,8.72,1.15,13.21.57,9.37-1.22,16.44-4.82,20.94-6.21s10.21-2.4,23.65-6.1c10.95-3,13.92-4.12,17.92-5.7C425.83,200.07,428.73,197.44,427.79,189.89Z" style="fill:#ffbda7"></path><path d="M420,184.67a22.61,22.61,0,0,0-10.09-3.55l-.4,0-8.11,3.58C409.39,181.47,420,184.67,420,184.67Z" style="fill:#f0997a"></path><path d="M416.54,151.84a139.2,139.2,0,0,0-6.49-15.79c-3.49-7.23-11.25-8.93-19.51-11.42a39.32,39.32,0,0,0-2.43,30.05c2.88,9.09,13.24,30,13.24,30a44.62,44.62,0,0,1,25-2.55A269.68,269.68,0,0,0,416.54,151.84Z" style="fill:#37474f"></path><path d="M388.89,86a27.46,27.46,0,0,1-2.48,7.52c-.51-.77-1.11-1.53-1.72-2.28A46.36,46.36,0,0,0,372.07,81h0c-11.05-6.29-25-9.22-36.48-7a26.66,26.66,0,0,1,2.61-6.28A27.36,27.36,0,0,1,388.89,86Z" style="fill:#2DC1F1"></path><path d="M379.29,57.93c-1.32-.77-8-3.37-8.56-3.58-3.48-1.37-9.2-1.76-15.47,2.6a27.83,27.83,0,0,0-10.38,14.12L352,74l2.31.41c1.29-5.29,9.3-16.3,19.27-15.94a9.73,9.73,0,0,1,1.41.13,13.21,13.21,0,0,1,3.78,1.09,37.62,37.62,0,0,1,3.61,3.41A6.13,6.13,0,0,0,379.29,57.93Z" style="fill:#2DC1F1"></path><path d="M379.29,57.93c-1.32-.77-8-3.37-8.56-3.58-3.48-1.37-9.2-1.76-15.47,2.6a27.83,27.83,0,0,0-10.38,14.12L352,74l2.31.41c1.29-5.29,9.3-16.3,19.27-15.94a9.73,9.73,0,0,1,1.41.13,13.21,13.21,0,0,1,3.78,1.09,37.62,37.62,0,0,1,3.61,3.41A6.13,6.13,0,0,0,379.29,57.93Z" style="fill:#fff;opacity:0.45"></path><path d="M354.3,74.36c1.52-6.16,12.23-20.19,24.47-14.73A37.31,37.31,0,0,1,382.39,63a6.17,6.17,0,0,0-3.1-5.11c-3.16-1.83-9.67-3.14-16.92,1.91A27.73,27.73,0,0,0,352,74Z" style="fill:#2DC1F1"></path><path d="M354.3,74.36c1.52-6.16,12.23-20.19,24.47-14.73A37.31,37.31,0,0,1,382.39,63a6.17,6.17,0,0,0-3.1-5.11c-3.16-1.83-9.67-3.14-16.92,1.91A27.73,27.73,0,0,0,352,74Z" style="opacity:0.30000000000000004"></path><path d="M372.42,78.86c-.49-.51-2.6-6.19-11.28-11.76-5.36-3.44-16.82-4.5-22-4.83-9-.57-11.33,1.17-11.55,2.49-.05.31-.29,1.76-.36,2.09a1.23,1.23,0,0,0,.12.86c1.19,2.16,8.18,6.28,8.18,6.28,11.51-2.22,25.43.71,36.48,7Z" style="fill:#2DC1F1"></path><path d="M372.42,78.86c-.49-.51-2.6-6.19-11.28-11.76-5.36-3.44-16.82-4.5-22-4.83-9-.57-11.33,1.17-11.55,2.49-.05.31-.29,1.76-.36,2.09a1.23,1.23,0,0,0,.12.86c1.19,2.16,8.18,6.28,8.18,6.28,11.51-2.22,25.43.71,36.48,7Z" style="opacity:0.15"></path><path d="M372,81c-11.05-6.29-25-9.22-36.48-7,0,0-7-4.12-8.18-6.28-.63-1.18.25-4,11.41-3.31,5.15.33,16.61,1.39,22,4.83C369.45,74.8,371.55,80.48,372,81Z" style="fill:#2DC1F1"></path><path d="M372,81c-11.05-6.29-25-9.22-36.48-7,0,0-7-4.12-8.18-6.28-.63-1.18.25-4,11.41-3.31,5.15.33,16.61,1.39,22,4.83C369.45,74.8,371.55,80.48,372,81Z" style="opacity:0.30000000000000004"></path></g></g></g><g id="freepik--speech-bubble--inject-5"><g id="freepik--speech-bubble--inject-5"><path d="M288.58,48.18c0-13.83-15.65-25-35-25s-35,11.21-35,25,15.66,25,35,25c1.16,0,2.31,0,3.44-.12,3.82,7.18,10.32,8.41,15.36,7.84A9.48,9.48,0,0,1,267,71.31C279.68,67.54,288.58,58.61,288.58,48.18Z" style="fill:#fff"></path><path d="M270.3,81.42a14.62,14.62,0,0,1-13.45-7.94c-1.08.07-2.17.11-3.23.11-19.47,0-35.32-11.4-35.32-25.41s15.85-25.41,35.32-25.41,35.32,11.4,35.32,25.41c0,10.26-8.45,19.42-21.57,23.41a9.12,9.12,0,0,0,5.2,9,.34.34,0,0,1,.21.38.35.35,0,0,1-.32.31A19.91,19.91,0,0,1,270.3,81.42Zm-13.24-8.68a.37.37,0,0,1,.33.19,14,14,0,0,0,13.77,7.74,9.91,9.91,0,0,1-4.49-9.39.35.35,0,0,1,.25-.32c12.94-3.85,21.29-12.79,21.29-22.78,0-13.61-15.51-24.68-34.59-24.68S219,34.57,219,48.18s15.52,24.68,34.59,24.68c1.12,0,2.27,0,3.42-.12Z" style="fill:#2DC1F1"></path><path d="M241.93,48.89a3.56,3.56,0,1,1-3.55-3.56A3.55,3.55,0,0,1,241.93,48.89Z" style="fill:#2DC1F1"></path><path d="M257.18,48.89a3.56,3.56,0,1,1-3.56-3.56A3.55,3.55,0,0,1,257.18,48.89Z" style="fill:#2DC1F1"></path><path d="M272.42,48.89a3.56,3.56,0,1,1-3.55-3.56A3.55,3.55,0,0,1,272.42,48.89Z" style="fill:#2DC1F1"></path><g style="opacity:0.30000000000000004"><path d="M241.93,48.89a3.56,3.56,0,1,1-3.55-3.56A3.55,3.55,0,0,1,241.93,48.89Z" style="fill:#fff"></path><path d="M257.18,48.89a3.56,3.56,0,1,1-3.56-3.56A3.55,3.55,0,0,1,257.18,48.89Z" style="fill:#fff"></path><path d="M272.42,48.89a3.56,3.56,0,1,1-3.55-3.56A3.55,3.55,0,0,1,272.42,48.89Z" style="fill:#fff"></path></g></g></g></svg>